<?xml version="1.0" encoding="UTF-8"?>
<svg width="500" height="762.09" enable-background="new 0 0 500 762.094" viewBox="0 0 500 762.094" xmlns="http://www.w3.org/2000/svg">
 <g fill-rule="evenodd">
  <path d="m253.5 76.094c-4.723-3.478-13.619 1.476-18.5 0 4.23-2.725 15.03-8.463 18.5 0z"/>
  <path d="m287.5,73.094c-1.22.855-3.57-.501-6,0 1.575,1.424 4.28,1.72 5.5,3.5-1.847.986-2.604,3.063-5,3.5-1.937-.23-3.039-1.294-3-3.5-1.647.186-2.498,1.168-3.5,2 2.331,3.708 7.938,1.29 11.5,2-4.023,4.375-10.664.202-15.5-.5 2.53-4.34 10.17-10.875 16-7z"/>
  <path d="m237.5,80.594c5.499.701 11.098,2.742 16,0-1.98,5.524-13.45,3.797-16,0z"/>
  <path d="m269.5,89.594c.442,3.434-4.529,8.922-8.5,8.5-1.506-.16-6.645-4.425-6-7 2.366,2.134 4.096,4.904 7.5,6 2.48-2.359 5.75-3.915 7-7.5z"/>
  <path d="m252,92.094c3.146,4.339-3.352,7.175-6.5,8.5-.31,1.357.635,3.968-.5,4.5-2.838-1.274-.681-3.604-.5-6.5 2.92-1.74 7.39-1.937 7.5-6.496z"/>
  <path d="m272,93.094c1.926.074 1.217,2.783 2.5,3.5 5.98-1.512 8.246,7.758 3.5,9.5 .487-1.346 1.103-2.564 1.5-4-.505-.996-.864-2.136-2-2.5-7.299,3.109-10.782,15.502-21.5,10.5-2.026-3.807-5.244-6.422-7.5-10 3.391.442 3.923,3.744 6.5,5 8.044.505 16.658-.153 20.5-6-1.41-1.755-4.07-2.262-3.5-5.996zm-16,14.496c3.514,2.201 9.673,2.507 12-1-4.34-.07-9.09-1.29-12,1z"/>
  <path d="m267.5,114.59c-1.746,1.702-5.912-.894-9,1 .97-2.66 6.8-2.41 9-1z"/>
  <path d="m259.5,134.59c1.814.454.304,1.476.5,3-.96-.42-1.35-2.19-.5-3z"/>
  <path d="m259,142.09c.911.622 1,4.634-1,4 .52-1.14.32-3.01 1-4z"/>
  <path d="m282 147.09c1.739 1.094 2.12 3.546 2.5 6-1.33-1.5-1.64-4.02-2.5-6z"/>
  <path d="m268,151.09c2.211,9.928.459,25.499 4,36.5-4.5-9.86-4.09-23.71-4-36.5z"/>
  <path d="m257.5,153.59c1.292-.111.764,2.598.5,3.5-1.12-.21-.2-2.46-.5-3.5z"/>
  <path d="m283.5,155.09c1.871,2.924.047,6.264.5,11.5-2.32-2.28-.4-9.56-.5-11.5z"/>
  <path d="m206,298.59c-.293,1.041-1.051,1.616-1.5,2.5-1.794.294-2.419-.581-3.5-1-.19-3.48 4.01-4.53 5-1.5z"/>
  <path d="m289.5,387.09v1.5c-1.045.212-1.324-.343-2-.5 .12-.88.86-1.13 2-1z"/>
  <path d="m170.5,759.09c.876.686 2.382,2.059 1.5,3-1.21-.29-1.11-1.88-1.5-3z"/>
  <path d="m189.5,213.09c-.01,1.49-2.359.641-3,1.5-4.466,8.7-12.782,13.552-16.5,23-9.087,6.746-9.869,21.798-18,29.5-1.04-.514 2.767-4.517-1.5-5.5-1.043.79-2.509,1.158-2.5,3-.709,2.876 3.381.952 3,3.5-25.7-3.6-48.133-12.208-67-24 .72,2.211.282,3.643 0,6-1.89,1.978-4.93,3.037-8.5,2-1.165,2.669.224,7.89-1.5,10-1.646,1.021-3.851,1.482-6,2 .361,1.528-.511,1.822-.5,3-1.347-.591.002-2.607 0-3.5-2.968-1.677-6.103-.701-9.5-4-1.999-1.941-2.78-9.105-8.5-7-1.384.509-1.991,1.994-2,3.5-.047,8.129 27.237,5.347 18.5,19-8.297,1.826-11.415-4.571-16-7-3.367-1.783-7.527-.89-10-4.5 4.287-15.213 10.192-28.808 19-39.5-10.06-1.124-11.752,9.952-17,16-4.016,4.629-9.389,7.184-12.5,12-14.922-3.667-20.607,8.524-27,16.5-.061-2.228 1.233-3.1 1.5-5-1.55-1.838-1.912,1.721-4,1 4.638-5.46 6.788-10.599 10.5-16.5 .945,1.796-1.896,4.09-2.5,6 2.597-.737 4.798-1.868 6.5-3.5-1.987-3.846-6.2-5.467-10-7.5 1.226-2.643 6.249-1.19 8,0 4.072-4.095 6.077-10.256 9-15.5-3.576,3.464-14.413,8.853-18,2 17.84-4.405 22.121-20.617 42.5-21.5 6.699-.291 14.902,1.129 21.5,3 8.003,2.27 16.784,8.878 25,4.5 .991-2.242.565-5.821-1-7-8.375-.912-21.552,6.737-24-3-1.344-.344-.966,1.034-1.5,1.5-.26-2.673 2.266-6.131 4.5-7 7.661-2.981 17.027,8.01 23.5,2.5-.995-10.005-19.726-2.274-25.5-7.5-1.125,1.875-2.024,3.976-2,7-1.108.275-.712-.955-1.5-1-.811,1.805.085,2.42-.5,4-2.623-2.784 1.142-4.444 1.5-5 2.041-3.164 1.808-7.944 4-9.5 7.934-5.631 16.323,5.316 24.5,2.5-.412-12.925-19.704-3.309-25-8.5-3.206,3.127-2.564,10.103-4.5,14.5-.608-6.444 2.099-13.899 5-18.5 9.108-3.813 16.878,3.33 25.5,1.5 1.242-2.29-1.146-3.357-1.5-5.5-7.051-2.218-17.801,1.193-25-1.5-5.549,7.655-6.027,23.875-5.5,34.5-1.907-6.658-1.519-33.515 6-38 2.569-1.533 11.325-2.413 13,2-3.96-1.958-8.791-2.715-12.5-.5 3.788,5.988 29.547-4.544 27.5,8-.443,2.715-2.527,2.018-4,4.5 4.146,2.72 3.414,9.187-1,11 4.816,2.119 4.201,9.954-2.5,9.5 8.436,2.497 5.042,12.662-3,13 14.986,7.847 38.196,7.471 52.5,16 10.103-23.23 22.059-44.607 38.5-61.5-1.738-8.198 3.228-14.215 5.5-21.5 .594-1.904 2.1-8.065 1.5-10.5-.315-1.279-1.652-2.444-3-3.5-9.097,3.886 2.275,27.996-9.5,27-6.137-.519-6.748-15.307-3.5-20.5-4.059,2.163-8.018.708-9-6-1.035-7.074 2.897-15.514 3-22 .111-7.04-1.861-15.018-1-20.5 .793-5.051 3.571-10.094 4-14 1.927-.906 3.162-2.505 5.5-3-1.628-24.812 14.562-41.335 34-49.5 6.137-2.578 13.794-5.345 19.5-6 16.945-1.944 28.691,4.362 37.5,13 10.286-20.525 27.422-34.706 53-36.5 9.832-.69 21.638,2.464 28,7.5 16.422,13 21.788,41.648 10,62.5-2.481,1.518-4.026,3.974-6,6 2.765,3.061 2.426,5.094 2,10 2.022.895 2.871.033 5.5.5 3.762,5.736 1.567,14.57 2,23 .43,8.382 4.631,27.898-1.5,34.5-2.746.246-3.384-1.616-6-1.5-.25,7.747 2.29,19.429-1.5,28.5 15.524,13.516 27.285,31.306 42,46.5 6.535,6.749 11.601,13.882 20.5,17.5 5.093,13.908 15.893,22.107 21,36-1.778-.555-2.206-2.46-4.5-2.5-.943.723-2.217,1.117-2,3 .363,1.773 4.921,1.558 3.5-1.5 1.682-.015 1.019,2.315 2,3 1.066.233.952-.714 1-1.5 2.784,2.75 3.552,6.821 5,10.5 2.676,6.8 5.987,13.901 9,21.5 9-9.333 19.595-17.072 33.5-21.5 4.277,3.306 4.103,10.503 4.5,16.5 1.128,2.872 3.806,4.195 4,8-2.147,3.186-7.449,3.218-8,8-5.278-.279-6.857,3.143-8,7-7.484-1.484-5.934,6.066-11,7 5.451,6.247 10.38,14.391 17.5,19.5 2.77,1.987 6.701,2.952 10,5.5 2.172,1.678 3.862,4.645 6,6.5 2.236,1.94 5.339,2.658 6,5.5-9.575-1.925-15.732-7.267-24.5-10 .374,10.737-3.174,28.133 1,39-5.526-2.141-5.832-9.501-6.5-16.5-9.56-1.87-18.925.725-24.5,4.5 1.769-4.472 2.608-10.559 2.5-15.5 2.689,2.494.979,7.908 0,11 4.511.591 2.921-6.683 3.5-11 .388-2.886 1.789-4.604 1.5-7-.507-4.196-4.672-5.941-4-9.5 6.204,9.796 12.827,19.172 22.5,25.5-1.32,4.07.443,8.709 1.5,12-.443-5.213 1.735-9.57.5-14-1.175-4.211-9.628-9.191-10-15 4.713,1.954 4.018,9.315 9,11 .53-4.202-2.882-8.781-2.5-14.5 2.393,2.274 1.377,7.957 3.5,10.5 1.162-3.338.17-8.83.5-13 6.018,3.483 13.561,5.439 19.5,9 .535-2.71-4.795-3.865-5.5-7-14.465-4.536-20.007-17.993-30.5-26.5-2.604-.271-.629,4.038-3,4-1.86.899-4.217.1-6-.5-2.562,1.771-1.844,6.822-6.5,6.5-.658,12.492 7.208,16.458 7.5,28-3.357-9.476-8.689-16.977-9-29.5-.698,4.364-5.828,10.155-10,5 .299,5.771-5.7,9.257-9,4.5-2.514,1.803-3.146,5.604-6.5,5.5-8.977-.278-3.449-22.212-12.5-23-1.852,9.972 10.004,15.499 7,25-7.45.14-8.979-10.491-7-16.5-8.449-15.129 17.177-19.333 25.5-24.5-9.871-15.229-22.97-26.444-32-43-3.494-6.406-4.989-14.419-10.5-19-2.008-1.669-4.757-2.573-7-4-5.768-3.667-10.313-8.26-16-12.5-14.975-11.165-29.783-23.308-41-38.5 .558,7.725-3.289,11.044-9.5,12-2.67-3.497-5.594-6.74-8.5-10-1.123,4.057-1.067,8.155 1.5,10-2.77,14.558-14.195,24.824-12,42 1.972,15.433 11.926,25.167 16,37.5 5.547-4.454 9.672-10.329 15.5-14.5 12.299-2.304 24.104.804 34,6.5 6.326,3.641 12.531,8.473 18,10.5 1.705.632 3.77.238 6,1 6.004,2.051 17.001,9.446 17.5,15.5 .581,7.048-4.631,16.146-6.5,25-2.165,10.259-4.477,20.612-7.5,29-11.686,5.481-19.724,14.609-29.5,22-6.091-1.995-8.884,4.177-14.5,3.5-7.834-.943-9.992-10.687-16.5-15-1.164,5.424-3.601,11.945-3,17.5-5.314,17.806-11.064,36.384-18.5,53-4.298,9.604-9.582,19.144-10.5,31.5-.312,4.21.419,8.673 0,13-.991,10.242-3.294,22.659-3,33.5 .697,25.717-.062,57.62-6.5,82.5-3.72,14.377-8.811,28.36-11.5,44-3.846,22.365.701,39.589 4.5,63.5 2.734,17.213 13.878,31.34 14.5,48-5.809-3.017-10.955-7.904-16.5-12-11.136-8.225-20.762-15.663-22.5-33.5-1.953-1.159-3.332-1.582-6-1 .312-9.885-.403-21.303-5.5-29 6.383-11.333 12.284-22.823 13.5-38 1.682-20.985-6.63-45.355-9-69.5-7.659,23.926-15.266,55.342-11,84.5 .824,5.632 3.58,11.009 4,17 .718,10.249-5.272,19.352-8.5,29-2.883,8.62-3.177,18.84-9,26-6.265,7.703-17.867,10.199-25.5,17.5-1.766,2.734-3.325,5.675-7.5,6-4.049-13.865 9.028-24.112 12.5-36.5 1.292-4.61.737-9.845 2-15 3.643-14.87 13.104-24.489 11.5-42-1.89-20.622-6.521-43.146-11-64-3.555-16.55-6.361-34.854-4-52.5 1.533-11.455 5.869-21.1 7-33.5 1.404-15.4-1.383-29.759-3-43.5-2.102-17.861-10.247-33.727-13-50-3.131-18.507-4.376-38.467-4-59.5-8.489,3.207-19.205,6.744-33,3.5-2.623-.617-5.327-2.516-8.5-3.5-5.827-1.806-9.003-.922-11-4.5-.838-13.661 10.97-28.428 16-42 3.312-8.938 3.98-20.223 14.5-21 3.656-.27 12.084.911 10.5,5.5-3.262-.931-8.454-1.946-10.5-2.5-12.378,3.122-10.42,20.58-18,28.5-2.259,10.407-9.171,16.162-9.5,28.5 16.5-9.106 28.719-26.369 41.5-41 3.161-3.618 7.196-8.123 12.5-8.5 2.553,12.861-6.735,21.559-4.5,31.5 1.502,6.681 11.197,10.583 12,18 .326,3.009-2.788,7.725-2,10.5 1.491,5.25 17.415,2.34 23,5.5 3.489,1.974 3.132,5.4 7.5,7 9.059-3.951 12.579-16.075 21.5-18.5 1.805-3.695 5.562-5.438 8.5-8-1.104-3.73-5.203-4.464-8-6.5-2.623-5.211-5.725-9.942-10.5-13-.314,8.862 12.597,10.397 13,19 .432,9.228-16.688,8.913-20.5,3-1.452-2.251-2.3-7.362-2.5-9.5-.954-10.2 2.553-16.796 1.5-29-3.873,7.307-8.293,26.027-19.5,16.5 2.841-10.993 11.045-16.622 16.5-25-8.596-2.538-18.138,2.486-24.5,5.5-.964,9.561-1.126,22.093 0,33 .559,5.41 3.644,10.361 2,14.5-2.185-.343-2.54-3.57-3-5.5-2.507-10.515-1.197-24.756-2-36-.249-3.483-.505-7.353 2-9.5 .639-.547 6.222-3.093 7.5-3.5 7.057-2.249 17.57-4.217 21-.5-.328,5.56-5.328,8.521-8,12.5-2.762,4.113-4.895,8.82-5,14.5 6.915-2.752 8.003-11.331 11-18 .825-1.361 3.859.87 4-3 4.005,7.329 17.346,5.321 24,10 2.218,4.449 2.957,10.376 5,15 3.518-12.943 12.078-27.847 26.5-25 3.553-2.681 9.905-1.424 12-4.5 4.118-.178 5.606.293 8.5.5 1.192-1.865-.696-4.566 2.5-6-3.828-17.209-19.188-30.859-19.5-50.5-.18-11.308 5.764-21.389 10.5-31.5-6.347,3.473-12.396,9.282-19.5,14.5-6.605,4.852-14.186,9.839-20,15-2.76,2.45-3.842,6.211-8,7.5-1.728.536-4.09-.122-6,.5-3.041.99-4.746,4.62-7.5,7-11.984,10.356-31.754,18.75-40,31-.969,1.821 1.342,2.306 0,4.5-4.717.869-11.695,5.47-16,2-1.131-5.395 8.923-3.201 13-6-9.956-5.815-27.578-7.377-42.5-3.5-5.934,1.542-10.745,5.335-14,9-2.601,13.65-6.411,25.564-5,40.5-3.131-.702-1.333-6.333-2.5-9-10.15-4.516-14.732-14.601-22-22 .151-2.515 1.607-3.727 2-6 18.262-7.277 32.964-31.077 56-33 8.965-.749 12.555,3.359 17,8.5 4.274-1.559 5.497-6.17 10-7.5 2.197,2.97 3.051,7.282 3.5,12 4.214-2.844 6.873-8.01 10.5-12.5 5.069-6.275 10.897-11.696 11-22 .151-15.195-11.221-26-13-41-3.229-3.314-4.277-10.657-2.5-15-.486-.014-.388-.612-.5-1-1.612,2.055-4.249,3.084-6.5,4.5-.981,8.686-6.036,13.298-10,19-.17,1.01.1,1.57 1,1.5zm13-44.5c-3.53,5.592 1.127,14.944-2.5,22 7.64-1.01 13.14-20.24 2.5-22zm150.5-101.5c3.787-5.816 5.281-16.72 5-24-.52-13.423-7.992-27.168-17-33.5-17.767-12.488-45.833-4.858-59,6-5.886,4.854-17.042,16.044-18,22.5-.808,5.444 2.366,11.965 3,16.5 3.152.152 5.921-.079 8.5-.5 3.369,5.131 8.974,8.026 15.5,10-.607-18.521 10.018-29.021 25-33.5 .128-3.372-.031-7.031 3-7.5 .305,3.305-.874,5.126-.5,8.5 3.853,1.186 2.669-2.664 4.5-3.5 .951,1.124-.955,4.023 1.5,4.5 2.921,1.821 2.373-2.855 4.5-1.5v3.5c1.59.076 2.199,1.134 4,1 5.001,5.777 8.419,13.087 8,23-1.057,2.095-3.31,4.577-2.5,7-5.251,4.083-8.946,9.721-15,13 12.81,3.619 24.93-4.479 29.5-11.5zm-14.5-13c-.206-7.01-4.566-11.393-7.5-15.5-15.458-10.219-34.771,1.122-37.5,18 2.15-.628 11.977-4.482 10,2.5-1.186-4.255-8.523-2.191-10,.5 .384,3.627-1.01,9.247-1.5,12 4.399-3.796 16.181-20.485 25.5-14 1.538,1.07 2.401,3.713 2,7 4.479-2.369 9.728.58 11,5.5 4.84-2.83 8.2-9.362 8-16zm-102.5,2c2.478-8.189 9.678-11.655 17-15-10.14.193-16.65,6.679-17,15zm-31-3.5c-3.786-.619-5.067,1.266-7.5,2-1.004,1.496-.814,4.186-2.5,5h-3.5c-.189,5.32-3.709,11.479-8,9.5-.071,4.76.896,9.642 4.5,12-.605-3.939.742-5.925 2-8 .901-7.818 7.78-13.848 15-17 1.854-5.983 9.879-4.212 15-2.5-2.35-5.022-12.28-5.617-15-1zm57.5,23.5c3.693-5.474 5.059-13.275 8-19.5-.11-.39-.419-.581-1-.5-2.33,6.675-6.15,11.851-7,20zm5-7.5c2.28-1.053 4.885-1.782 7-3-.288-.879.604-2.938-.5-3-.439,1.227-.45,2.883-2,3-.393-3.403 3.168-5.485 2-8-1.967,2.533-1.906,7.094-4.5,9-.102-3.838 4.442-8.129 2.5-10.5-1.72,3.949-3.69,7.647-4.5,12.5zm-7.5,6.5c2.988-5.181 6.23-12.768 7-18.5-2.37,6.132-5.53,11.468-7,18.5zm3.5-14c-.323-1.257 2.291-3.43 0-3.5 .66,1.55-1.48,2.774 0,3.5zm27,30c9.445-8.388 16.146-19.521 28-25.5-.829-2.266.186-3.618-.5-5.5-16.49-3.795-30.15,13.715-27.5,31zm-14.5-26.5c.639-.906 2.674-3.285.5-4 .78,1.981-1.89,3.056-.5,4zm-52.5,3.5c4.223,1.111 3.537,7.13 5.5,10.5 1.61-.11 2.116.884 4,.5-1.065-11.602-12.271-13.063-22.5-15.5 5.917-2.32 13.658,1.938 18.5,4-1.627-6.727-10.832-7.939-18-6-5.687,1.538-10.735,7.563-12,12 8.61-.443 16.047.286 23,1.5 .8-2.028-.1-5.769 1.5-7zm28.5-2c.73-.961 1.996-3.971 1.5-4.5-.49,1.198-2.85,3.114-1.5,4.5zm5.5,2.5c2.033-.316 2.188-5.125 2-6-.75,1.753-3.09,4.014-2,6zm21-6c-1.408,5.926-10.003,4.663-12.5,9.5-.229,2.396 2.547,1.787 2.5,4-.69,1.143-.547,3.12-2.5,3-.077-3.132-7.614.726-7.5-4-.398-2.499 1.75-2.447.5-4.5-2.085-1.195-6.221-1.81-8-.5 .208-3.127-1.493-4.39-.5-7-7.592,2.408-12.874,7.126-17,13 1.412,7.33-.373,15.072 1,20.5 2.714,10.732 15.017,13.968 18.5,23.5 6.616,3.253 14.293,4.048 19,.5 6.332-4.773 14.819-16.427 17.5-23.5-.396-8.17-.97-19.285 1.5-28.5-8.751-4.059-14.794,4.047-21,4 4.359-2.64 8.015-5.986 12.5-8.5-1.41-.422-2.05-1.611-4-1.496zm-22.5,5c-.233-1.281 1.769-2.834.5-3.5-.26.787-1.92,2.678-.5,3.5zm3,1.5c1.84.634 2.455-2.492 1.5-3-.48,1.022-1.02,1.979-1.5,3zm45,10c-5.64,5.887-11.626,12.19-13.5,17 8.685-5.649 17.099-11.568 27.5-15.5-.205-2.128-2.548-2.119-2.5-4.5 4.307-1.86 11.502-.832 13.5-5-6-11.786-18.74,1.468-25,8zm-105-3.5c-5.763,12.274 19.622,11.755 21,1.5-5.47-1.835-14.01-2.802-21-1.5zm146.5,2c-6.765,4.327-17.684,7.417-26,3.5-7.366,3.796-16.497,8.664-23,13-2.165,1.444-5.551,2.879-5,5 17.801-5.914 36.534-8.037 56.5-12-.08-2.035 1.04-9.285-2.5-9.5zm-135.5,26.996c8.594-.364 19.912-2.352 26.5-1.5-4.069-6.329-4.11-14.203-3.5-22-2.391.557-2.109-1.557-4.5-1-1.47,12.864-8.94,19.732-18.5,24.5zm-43-21.996c.066,3.233-2.154,4.18-2,7.5 2.38,1.338 4.815-1.033 8-.5 .756-2.501-1.25-5.456-1.5-8.5-2.97-1.045-2.48,3.153-4.5,1.5zm14,12c9.183,15.985 44.105,7.419 44.5-12.5-.112-.388-.014-.986-.5-1-6.93,12.23-28.44,21.996-44,13.5zm132,1c-9.021,1.724-18.497,2.377-25,7.5 1.344,3.289 3.812,1.168 6.5,1.5 20.677,2.551 44.909,8.601 59.5,18.5 1.443,5.915-3.053,15.305 1,19.5 2.797-4.164 2.884-10.614 2.5-16.5-.591-9.07-2.274-19.585-3-29 2.289-2.235.961-6.409 0-9-14.35,1.655-28.54,5.027-41.5,7.504zm-133.5,3.5c-3.815-3.831-4.961-11.594-11-7.5 .247,3.065.984,5.839.5,9.5-1.973,14.905-14.831,31.685-3.5,43 8.988-5.636-2.032-26.077 7.5-31 4.234-2.187 8.569-.558 12-4.5 4.224-.61 8.835-.831 12.5-2-7.08-1.23-13.21-2.69-18-7.496zm-16,13.496c2.853-4.905 6.295-14.913 2.5-20.5h-1.5c-2.26,4.559-1.56,15.14-1,20.5zm22-3c-2.229,2.104-5.147,3.52-8.5,4.5 5.117,11.263-7.103,23.264-8.5,34.5-.521,4.186.414,14.606 5,14.5 7.012-.163 2.01-18.914 4.5-23.5 .821-1.511 3.966-4.078 6-6 6.792-6.421 13.966-10.587 20.5-16 9.101-4.066 18.499-7.835 26.5-13-16.29.55-30.06,3.61-45.5,5zm-.5,38.5c-1.457,10.864-8.884,16.001-5,28.5 1.725.275 2.214,1.786 4.5,1.5 .502-.796.473-2.012 1.5-1 2.022-7.5-.937-12.743 1-19 3.663-11.838 24.772-27.789 33-34.5 .424-.346 1.003-.798 1.5-1 8.802-3.584 14.903-10.946 26-8-3.511-3.322-6.223-7.443-10.5-10-.276.89-.257,2.076-1,2.5-.963-.203-.395-1.938-2-1.5-5.202,2.631-10.275,5.391-16,7.5-1.917,4.083-5.26,6.74-9,9 2.097-2.736 4.892-4.774 7-7.5-13.37,4.463-22.579,13.087-32.5,21 1.292,2.541 3.272,4.395 2.5,9 7.925-6.409 14.454-16.878 22.5-21.5-7.64,8.53-16.29,16.05-23.5,25zm101.5-43c-.545,2.289-2.345,3.322-3.5,5 23.577,9.59 44.359,21.974 62,37.5 .953,9.243-5.16,15.792-1,23 .305.028.592.075.5.5 4.448-1.209 4.44-7.604 4.5-11.5 .188-12.382-4.313-28.577 1-38-16.77-9.96-44.42-13.38-63.5-16.5zm-4.5,6c-2.14,2.527-4.645,4.689-6.5,7.5 6.364,8.389 13.677,18.233 20,29 6.188,10.536 13.284,21.331 17.5,32 3.481,8.81-4.236,17.795.5,25.5 13.784-1.314 1.884-31.113 13-37.5-12.839-15.793-27.755-31.699-42.5-45-1.893-1.708-4.215-3.769-5.5-6 13.705,10.076 28.104,26.221 40.5,40 2.854,3.173 10.677,11.446 11.5,15.5 1.158,5.703-3.879,12.437-2.5,19 1.395.438 2.47,1.197 4,1.5 11.675-8.451-3.134-39.031 9-48-18.42-12.41-36.35-25.31-59-33.5zm-109.5,4c-3.745,7.084-2.457,16.035-1.5,23.5 1.832-6.82 9.016-16.161 4-23.5h-2.5zm65,2c-8.182.818-11.09,6.91-18.5,8.5-9.025,9.308-20.336,16.33-27.5,27.5 2.787,1.546 4.445,4.222 4.5,8.5 8.097-9.903 14.05-24.616 23-32-3.19,5.393-7.532,10.76-11.5,16.5-5.578,8.068-12.702,17.935-12,27-3.387,3.315-6.71,18.299 2,18 5.581-3.772 1.641-13.482 2.5-19 1.18-7.578 8.954-16.495 14-23 8.396-10.824 15.8-18.973 24.5-27 4.777-.556 7.017-3.65 11-5-3.72.24-10.17-3.15-12,0zm5,6c-1.051.579-2.272.003-3.5.5-4.726,1.911-8.655,8.692-11.5,12.5-3.628,4.856-8.615,9.478-12.5,14.5-4.593,5.937-8.767,11.393-11.5,16 2.964-.524 4.315,1.938 6,4 7.034-14.133 14.776-27.558 25.5-38-10.525,15.514-24.835,28.961-27,52 1.251.66 1.565-1.977 2-.5-4.5,2.565-7.666,17.303 2,16.5 3.984-5.433 2.275-14.114 4-20 .571-1.947 2.252-3.609 3-5.5 4.823-12.194 11.283-25.522 19-34.5 2.747-3.196 5.619-5.594 8-9 2.427-3.472 4.518-6.946 7.5-10-3.08-5.78-7.99-.15-11,1.5zm52.5,60.5c-2.563-8.604-7.001-17.998-8.5-26 2.435,10.582 11.769,21.5 10.5,35-.471,5.008-4.102,9.492-2,15.5 1.59.076 2.199,1.134 4,1 7.544-6.425-3.354-30.475 12.5-29.5-8.29-19.329-20.652-37.923-32-54-1.314-1.862-2.644-5.93-5.5-5 2.202,6.299 5.6,14.064 6,20.5-2.138-6.695-4.389-13.278-6.5-20-1.566-.668-3.511,1.988-5,3 1.078,10.589 4.407,18.927 6,29 2.271,4.142 4.91,12.981 3.5,17.5-2.378-16.623-8.674-29.326-10.5-46.5-4.64.53-8.269.373-12.5-1.5-3.562,1.679-4.1,5.158-6,8-4.675,6.991-11.54,12.531-16.5,20-4.924,7.416-9.085,15.127-12.5,24 5.295-.795 6.124,2.876 8,5.5 3.596-11.953 7.918-23.128 13-32.5 1.273-2.348 2.468-5.776 5-7-9.812,19.032-20.927,39.391-20.5,67 1.984.683 3.01,2.323 6,2 5.882-3.982 2.471-15.113 7-21 1.597-11.631 4.954-25.215 10-35-3.551,10.616-6.494,21.84-9,33.5 2.666-2.362 6.178,2.271 6.5.5 4.785-20.215 7.799-42.201 12-63-1.927,12.146-2.681,26.816-6,40.5-2.133,8.794-5.047,17.661-6,25-.248,1.911.423,3.613 0,6.5-.73,4.979-3.542,10.961-2,14.5 .718,1.647 3.821,3.55 6,3 4.37-1.103 2.969-8.561 3-12.5 .086-11.115 3.166-29.236 5-40-1.717,9.166-1.187,18.038-2.5,28 3.844-2.978 8.49.013 10.5,1 .087-18.285-2.673-41.883-4-62.5 4.38,20.812 3.831,44.654 5,67.5-1.521,5.146-3.518,9.816-3.5,16.5 12.162,10.447 8.661-15.988 8-24 2.104,1.577 5.649-5.388 9.5-1 .052-3.228-1.482-7.505-1-9.5 1.235,5.244 3.674,11.019 2.5,18.5-.439,2.803-5.954,16.205.5,16 5.366-.17 2.267-15.706 2.5-20 .551-10.126-1.62-16.049-2-25 1.396,6.393 2.713,11.276 3,19.5 2.34-1.45 4.92-5.84 8.5-3zm54-42.5c1.413-.413 1.295.705 2.5.5 .185-5.966 2.697-13.005-.5-18.5-3.36,5.51-2.34,10.78-2,18zm-12,27c1.768.232 1.758,2.242 4,2-1.653-8.526 5.929-17.576 0-22.5-5.56,3.23-2.7,14.19-4,20.5zm-143.5,5c1.595-6.219 3.61-15.264-3-17.5-5.64,4.797-.377,15.85-4,22.5 3.15-.84 4.46-3.53 7-5zm128,16c-.461,6.294 2.704,8.962 6.5,11 5.08-4.93-2.92-8.69-6.5-11zm4.5,2c.021-4.693 6.196-17.196-.5-20.5-3.648,3.822-2.419,12.378-4,17 1.67,1.01 2.69,2.65 4.5,3.5zm13-14c1.713-.454 1.198-3.136 1.5-5-1.056-.444-1.478-1.522-3-1.5 .26,2.42-.3,5.64 1.5,6.5zm5.5.5c1.418-1.08 4.158-1.794 2.5-4.5-2.567.6-3.04,1.048-5.5,0-1.11,2.25.68,4.21 3,4.5zm3,.5c.561.105.778.555 1,1 1.935.435 1.778-1.221 3-1.5-.446-1.554-.515-3.485-2.5-3.5-.388.112-.986.014-1,.5 1.68,1.08-.66,2.3-.5,3.5zm-172.5,2c.944.056.347,1.653 1.5,1.5 .667-.833 2.224-.776 3-1.5 .47-5.46-4.29-3.94-4.5,0zm51.5,4c-.167-3.451-.748-6.086-2.5-7-8.816-4.598-7.392,14.292-9,20.5 5.52-2.81 7.53-9.13 11.5-13.5zm-46.5,1.5c-.744,2.578 1.192,2.475 1.5,4-2.589.919-.991,2.542-1.5,4-1.414.08-1.165-1.502-2.5-1.5-1.138,1.695-4.735.932-4,4.5 1.99,1.76 4.34-2.09 5.5.5-1.57.93-3.379,1.621-5.5,2-.799,1.69 2.122,2.133.5,3-1.481-.352-2.177-1.49-4.5-1-.154,1.179-1.736.93-1.5,2.5 1.089,1.475 3.519-1.291 4,1-2.598.235-2.713,2.953-3.5,5-2.211-.565-5.958,1.268-6,4.5 .717.783 2.606.394 2.5,2-2.631.333-7.958.158-7.5,5 .685.981 3.015.318 3,2-1.575.561-1.132.045-3,0-.77,1.423-1.506,3.423 0,4.5-1.497,1.836-3.062,3.605-6,4-.701,3.367.889,4.444 2,6-2.221,1.464-3.428-1.72-4-3.5-2.277.674-3.715-.498-5.5,1 .015,3.192 3.512,1.873 5,2.5-1.056,2.522-1.12,3.638 1,5-2.108.905-4.812-.529-3.5-3.5-1.557-.005-3.258-1.183-4.5,0 .21,2.29 2.608,2.392 3.5,4-1.071.595-2.793.54-3.5,1.5-.554,1.935 1.768,1.779.5,3-.586-.747-2.078-.589-2-2-.126-1.793 1.501-1.832 1.5-3.5-1.506-1.141-4.341-.269-4.5,1.5-.375,1.708 2.031.635 1.5,2.5-2.184,1.287-3.191-2.308-4-4-2.146-.146-1.644,2.356-3.5,2.5-1.381-1.528 1.758-1.567 1.5-3.5-1.36-1.11-4.013-.311-5,.5-.539,1.277 2.152,1.75.5,2.5-.86.027-1.282-.385-1.5-1 1.071-3.688-.627-3.832-1-7-3.77-1.372-3.77,1.673-3.5,3.5-1.776-.89-2.068-3.266-3.5-4.5-2.638-.305-4.501.165-5,2-2.147-.665-.137-2.234 0-3.5h-4c-.273.727.584,2.584-.5,2.5-2.535-.707 1.125-2.747-.5-4-2.435-.768-1.5,1.833-2.5,2.5-.743-.423-.724-1.61-1-2.5h-3.5c-.386,1.277 1.957,2.299.5,3-1.401-.266-.924-2.409-1.5-3.5 1.222-.445 2.168-1.166 4-1-1.391-2.281 1.682-2.04 2-4-2.722-.148-4.571-.902-6.5.5-.424,2.091 1.354,1.979 2,3-1.193.299-3.057.304-5,1-.322,2.156 2.097,1.57 2,3.5-2.421-.197-3.641-2.714-2.5-5-1.16-.16-1.919.08-2.5.5-.526,2.193 1.691,1.642 1.5,3.5-1.953-.881-3.213-2.454-6-2.5-.717,2.117-2.997,2.67-5,3.5-.531,1.865 1.875.792 1.5,2.5h-3c-.65,1.242 1.467,2.075 0,2.5-1.285-.048-.715-1.952-2-2 .557,2.276 1.313,4.354 4.5,4-.112-2.608 2.761-6.444 5-3.5-.674.992-3.491-.157-3.5,1.5 .646,1.021 2.069,1.265 2.5,2.5-1.512.155-3.889-.555-4,1 .39.11.581.419.5,1 2.14.14 2.473-1.527 5-1-.602-2.53 1.251-4.384 3-3-.279,1.221-1.935,1.065-1.5,3 .52,1.147 3.57-.237 4,1-.641.859-2.38.62-2.5,2 .735.003 2.511,1.391 1,2-1.525-.779-3.809-5.669-6-2.5 1.616,1.384 3.953,2.047 5.5,3.5 1.639-.028 1.911-1.422 4-1 1.209-1.201-1.214-1.324-.5-3.5 .676-.157.955-.712 2-.5 .364,1.364-.994,1.006-1,2 1.554.613 2.009,2.325 4.5,2 .687-1.14-1.289-1.879 0-2 1.442,3.802 6.778-2.022 8,2-1.908-.355-2.408-.332-4,.5-.248,2.248 2.596,1.404 3.5,2.5-1.384,2.364-4.947-.556-6,2 1.254.579 1.674,1.992 3.5,2 .114-1.719 1.488-2.179 3-2.5-1.256-3.613 3.467-5.363 5-3-1.55-.05-2.389.611-3.5,1 .99,1.93 2.028,3.855 4.5,3 .364-1.364-.994-1.006-1-2 .697-.94 3.707-2.704 4.5-.5-1.432-.099-2.729-.062-2.5,1.5 3.001.106 8.435-1.632 11.5.5-.869.964-3.472.194-3.5,2 .583.084.543.791.5,1.5 2.269.457 2.965,2.019 5.5,1-.23-2.198-1.928-3.92 1-4.5-2.248,4.043 2.913,5.726 5,3 .375-1.708-2.031-.635-1.5-2.5-.085-1.251.768-1.565 1.5-2-.066,1.232-.076,2.409.5,3 2.073.573 1.948-1.052 3.5-1-.175,1.8-.765,2.41 0,4 2.429.246 2.208-2.457 4.5-1-.311,1.355-2.089,1.245-2,3 .926.741.749,2.584 2.5,2.5 .694-.639.306-2.361 1-3 1.021,1.068 1.979-.141 3-.5 .219-1.506-2.668-4.267 0-5 1.084-.084.227,1.773.5,2.5 1.739.777 3.835-.281 3.5-3-.89-.276-2.077-.257-2.5-1-.14-1.14.121-1.879 1-2 .534.466.156,1.844 1.5,1.5 1.076-.424 1.769-1.231 1.5-3-.762-.905-3.428.095-3-2 3.006.172 5.699.032 5-3.5-1.676.343-1.828-.839-2-2 1.101-.451 2.147.071 4-.5 1.246-1.587.908-4.759 2.5-6 .534.466.156,1.844 1.5,1.5 1.093-.907 2.319-1.681 2-4-.807-.693-2.577-.423-3-1.5 2.384-.783 5.757-.577 6-3.5-1.275-.058-2.573-.094-2.5-1.5 .406-1.681 4.333.444 5.5-1.5 .452-2.618-2.452-1.882-2-4.5 2.193-.526 1.642,1.691 3.5,1.5 1.45-1.571.35-4.077 1-5.5 .81,1.607 5.521,2.59 5.5-.5-2.255.619-3.972-2.438-2-3 .963.203.395,1.938 2,1.5 1.167-1.5 3.664-1.669 3.5-4.5-1.829-.171-3.948-.052-4-2 2.34-.1 6.197-.056 7-3-2.356.189-4.293-.041-4-2.5 1.854-.354 2.146.854 4,.5 1.457-.543 1.958-2.042 2.5-3.5-.789-.836-2.296.651-2.5-1.5 1.888.221 2.347-.986 3.5-1.5 .282-6.876-1.576-11.416.5-18.5-5.83,1.01-5.65,8.02-12,8.5zm175-5.5c-.024-1.975-1.024-2.975-3-3-.26,2.27.74,3.27 3,3zm-17-1c.096,1.571.929,2.404 2.5,2.5 .688-.645.495-2.172.5-3.5-1.17.17-2.06.61-3,1zm4.5,3.5c1.578-.245 1.766.901 3.5.5 .688-.645.495-2.172.5-3.5-1.097-.57-2.043-1.291-4-1-.45,1.16-.58,2.13 0,4zm8.5.5v-3h-3.5c-.35,2.52 1.04,3.3 3.5,3zm-280.5,1c7.046,1.54 16.258.046 23,1-6.897-1.81-18.268-8.34-23-1zm110-.5c2.019.019 3.518-.482 3.5-2.5-1.79-.9-3.29.44-3.5,2.5zm173,3c2.092-.575 3.387-1.947 3-5-2.011.344-2.854-.479-4.5-.5-.44,3.02-.41,4.09 1.5,5.5zm-50.5,9c2.521,2.479 4.305,5.695 7,8 .674-6.632 3.123-13.685 2-20.5-7.16-5.13-9.81,4.91-9,12.5zm-128.5-9c2.199,1.157 5.056-.792 4.5-4-2.37.47-4.78.89-4.5,4zm236,59.5c.299-1.799-.18-2.82-1.5-3-.59,1.509-1.218,2.979-.5,4.5 1.166.428 2.154-1.749 2.5-.5-.424,1.076-1.231,1.769-3,1.5-.076-2.091-1.787-2.546-2-4.5 .664.649 1.86.659 2-.5-1.401-9.138-15.446-9.858-20-17.5 1.552-.052 1.427,1.573 3.5,1 .279-2.779-.231-4.769-2.5-5 .842,3.729-5.567,4.548-4.5,1.5 1.178-.011 1.473.861 3,.5 .13-2.463.193-4.86-2.5-4.5 .099,1.432.062,2.729-1.5,2.5-1.317.151-1.641-.692-1.5-2 .64.027.692.641 1.5.5 .445-2.111-.51-2.824-1.5-3.5-1.865-.531-.791,1.875-2.5,1.5 .239-1.573-.712-1.955-1-3-4.617.579-6.289-3.237-4-5.5-2.951-1.549-5.993-3.007-7.5-6-3.866.033-5.766-1.901-7-4.5 1.552-.052 1.427,1.573 3.5,1 .575-1.401.575-2.6 0-4-2.855-1.164-2.474,3.493-4.5,1.5 .849-.485 1.285-1.382 1-3-5.449-.051-7.383-3.617-10-6.5 1.791.291 1.521-1.48 1.5-3-4.113-1.653-9.036-2.817-14-2.5-1.07,5.696-1.191,9.523-3,14 2.002,1.637 3.604-.469 5-1-1.548,2.251.146,5.376-1,8.5 .732,1.101 1.325,2.342 3.5,2 1.072-.761.211-3.456 2.5-3 .371,2.038-1.611,1.722-1,4 .388.112.986.014 1,.5 2.219.052 1.556-2.778 3-3.5 .265,2.098-.873,2.793-1,4.5 .916,2.105 3.88.547 4.5,2-1.174.16-1.877.79-3.5.5 .413,1.413-.705,1.295-.5,2.5 .863,1.304 1.799,2.535 4,2.5 .404-2.334-.32-3.196.5-4.5 2.024.615.572,3.936.5,5.5 .591.576 1.768.566 3,.5 1.146-.52-.237-3.57 1-4 1.842,2.611-1.939,4.986.5,7 3.127.793 2.403-2.263 4-3 .579,1.138-1.994,5.262 1.5,5.5 .981-.685.318-3.015 2-3-.392,3.476-1.16,9.639 4,9 1.453-1.082-1.145-3.11 1-3.5 1.675,1.198-.01,2.756 0,5 .561.105.778.555 1,1 2.138.471 1.353-1.98 3-2-.349,1.856-.926,3.435 1,4 .855-.478 1.007-1.659 2-2 1.188.977-.914,2.798.5,4 2.457.958 1.338-1.662 3-1.5-.326,2.326.175,3.825 2.5,3.5 .114-.886-.504-2.504 1-2 .081,1.543-1.182,2.826 0,4 2.017.97 2.309-2.295 3.5-.5-.589,1.411-2.479,1.521-4,2 .529,1.328.375,2.845-1.5,3-1.968-1.199-4.019-2.314-6.5-3 2.182,2.823 7.001,5.66 10,6-.995-.211-2.868-2.079-2-2.5 .58.42 1.341.66 2.5.5 1.301-1.471-.876-3.312.5-4.5 1.623.044.352,2.981 2.5,2.5 2.601.434.937-3.396 3-3.5 .417,3.084-2,3.333-2,6h2.5c.114-.886-.504-2.504 1-2 .239,1.573-.712,1.955-1,3 1.865-.531.791,1.875 2.5,1.5 1.596-.071 1.484-1.849 3-2-.976,2.475-2.363,4.482 1,5.5 1.248-.419 1.053-2.281 3-2-1.081,1.21-2.399,3.595-.5,5 2.025.819 2.302-2.646 3.5-1-.17,1.663-1.895,1.772-2.5,3 2.506,1.962-.255,4.757-1,6.5 .889.444 1.271,1.396 3,1 .961-1.247-.763-2.055.5-3 1.378,1.718-.358,3.792.5,5.5 .422,1.078 3.188-.188 3.5,1-1.05,1.948-1.646,11.501 3,7 .611,2.278-1.371,1.962-1,4 2.062,2.102 3.365-1.674 4.5-.5-.07,2.263-2.655,2.011-5,2-.312,2.697 1.091,4.448 3,3.5 .65-1.242-1.467-2.075 0-2.5 1.497,1.65 3.68,1.993 4.5-.5 .044,3.961.778,4.691-.5,8 1.179.154.931,1.736 2.5,1.5 1.381.214.469-1.864 1.5-2 1.418,1.349-2.196,3.981 1,4.5 .852,1.57 1.168-2.9 2.5-1-.337,1.997-2.173,2.494-4,3-.152,2.152-.035,4.035 2,4 .11-.39.419-.582 1-.5 .688-1.58-1.237-3.018 0-3.5 1.225,1.385 1.898,3.624 4,1.5-.663,2.155-.177,3.538 1,5 1.865.531.791-1.875 2.5-1.5 .11,1.61-.885,2.116-.5,4 1.287,1.644 3.203.722 4.5,1.5-1.164,1.327-2.694.799-4.5.5-.039,2.206 1.063,3.27 3,3.5 1.226-.666-.901-1.509.5-2 3.03,2.081-1.933,3.344-4,3.5 .104,1.654 3.54.936 1,2.5 1.691,1.326 1.559-2.513 4-2v4.5c7.255,3.933 1.24,18.072 10.5,20 1.796-5.915-5.432-12.412-6.5-19.5-.369-2.447-1.541-8.048 2.5-9 5.777,4.556 6.714,13.953 9,22 1.645.616 4.334,1.936 5-.5-5.634-5.936-4.172-19.786-12.5-22.5-.454-.148-2.766,1.638-3-1h3c.435-1.935-1.222-1.779-1.5-3-1.266.137-2.835,2.147-3.5,0 1.241-.592 3.138-.529 2.5-3-.86-1.232-3.994,1.333-4.5-1 .591-.576 1.768-.566 3-.5 .066-1.232.076-2.409-.5-3-1.639.028-1.911,1.422-4,1v-2c2.832,1.749 4.791-2.847 1-3 .237,1.56-.623,2.421-1.5,1.5-.085-1.418 1.691-.976 1-3-2.299-2.706-6.791-5.87-6.5-9.5 .886.447.637,2.029 2.5,1.5 2.668-2.123-1.92-4.623-3.5-4-.012-1.178.861-1.472.5-3-4.769-3.231-7.356-8.644-11-13 1.829.109 1.918.687 3.5,0-.154,1.169-.979,2.065 0,3h2.5c-.012-1.178.861-1.472.5-3-1.377-.599-2.089-1.086-3.5-.5 1.368-3.552-4.077-2.9-2-5.5 .603.564.906,1.427 2.5,1 1.079-1.071.256-2.793-.5-3.5-3.066,1.457-7.763-.241-9.5-3 1.829-.329 1.918,1.082 3.5,1 1.79-2.69-1.08-4.42-3-5zm-54-59c.952.214 1.256,1.077 2.5,1 .555-.946.638-2.362 1-3.5-.643-.857-1.034-1.966-2.5-2 .45,2.29-.83,2.84-1,4.5zm-67-2c-5.053,6.329-1.258,18.023 3.5,22-.28-8.56 7.49-22.26-3.5-22zm-121.5,3c2.752.085 4.868-.466 5-3-3.1-.43-4.82.51-5,3zm193,2c1.539.35.961.35 2.5,0-.241-1.926-1.021-3.313-3-3.5-.29,1.63.34,2.33.5,3.5zm-9-2.5c-.05,2.216.593,3.741 2.5,4 1.521-.662 2.154-2.51 1.5-4-1.91.45-3.19-.81-4,0zm-77,0c-2.236,5.57-2.475,13.736-.5,19 2.083-2.084 1.639-6.694 3.5-9 1.269.897-.497,4.831 1.5,5 1.48-5.68 4.22-15.32-4.5-15zm-101.5,3c.12.713.823.843 1,1.5 2.11-.556 3.723-1.611 4.5-3.5-1.66-.9-5.46-.31-5.5,2zm71-1c-8.367-5.757-7.555,11.224-8.5,16 2.529-2.638 3.513-6.82 6-9.5 .927,1.073.337,3.663.5,5.5 2.5-2.14 3.04-7.85 2-12zm111.5,3.5c3.794,4.348 7.141-4.991 1-4 .32,1.99-1.32,2.01-1,4zm-187.5,1c2.159.326 2.803-.864 4-1.5 .011-1.178-.861-1.472-.5-3-3.2-.7-4.92,2.18-3.5,4.5zm-6,1.5c1.719.219 2.802-.198 4-.5 .136-1.698-.387-4.054.5-5-2.9.43-3.89,2.78-4.5,5.5zm93.5-4.5c-1.491,5.204-2.132,11.095-1,17.5 2.786-2.548 2.979-7.688 6-10 .117,3.383-.453,7.453 1.5,9 1.041-4.626 2.93-8.403 2.5-14.5-1.93-2.25-5.54-4-9-2zm-179-.5c-2.225-.117-7.029-.57-6.5,4 5.303,1.341 14.937,1.97 20.5.5-4.065.07-9.238-4.25-14-4.5zm284.5,4.5c1.63.13 2.406-.594 2.5-2-.28-.72-.78-1.22-1.5-1.5-.6.97-1.91,2.54-1,3.5zm4,2.5c2.275.275 2.728-1.272 3-3-2.17-.163-1.447-3.22-4-3 .82,2.6-.65,4.39 1,6zm-34.5-2.5c.977.917 2.798-.14 4-.5-.222-.945.68-3.013-1-2.5 .41,2.41-3.02.98-3,3zm-138-2c-.055,2.431 4.202,2.687 4,0-2.09.12-2.36-.81-4,0zm-25,3c.406,1.729-.934,2.111 0,3 1.94,1.184 5.06-.088 4.5-3-1.24-1.18-2.94,0-4.5,0zm203.5,3.5c.014-2.014-1.143-2.857-2.5-3.5-.2,2.21-.13,4.14 2.5,3.5zm-42,1.5c1.355.311 1.244,2.089 3,2 .11-.39.419-.582 1-.5 1.059-2.02-.136-3.98-.5-6h-2c-.49,1.51-1.02,2.98-1.5,4.5zm-166.5.5c1.59,1.528 3.307.393 4.5-1-.646-1.354-.911-3.089-2.5-3.5-1.75.42-2.03,2.3-2,4.5zm29,0c3.212.545 3.093-2.24 3.5-4.5-3.31-.56-3.99,2.76-3.5,4.5zm172,.5c.645.689 2.172.495 3.5.5 .159-1.174.79-1.877.5-3.5-2.24-1.62-4.35.44-4,3zm-29.5,2.5c2.804,1.438 3.997-1.627 3.5-5-.591-.576-1.768-.566-3-.5-.18,1.31-.44,2.93-.5,5.5zm-176.5-4c-.05,2.143-1.134,3.795.5,5 4.72.68 4.37-7.47-.5-5zm218,8.5c.945-.112 1.104.563 2,.5 .105-.561.555-.778 1-1-1.248-3.751-3.532-6.468-6.5-8.5 .532,3.199-.955,4.378-2,6 1.452.382 1.297,2.37 3.5,2 1.34-1.222-.303-4.315.5-5h1c.18,1.99-.46,4.8.5,6zm-306.5-6.5c-1.505,10.764 13.648,5.485 18.5,4-4.351-2.84-12.379-7.62-18.5-4zm299.5,2.5c1.79-.21 2.406-1.594 2.5-3.5-2.49-2.06-4.76,2.15-2.5,3.5zm-179,1.5c1.708.072 3.5-2.911 1.5-3.5-.93.75-2.74,2.11-1.5,3.5zm-26.5-2c.06,1.44-.273,3.273.5,4 2.336.169 2.948-1.385 4-2.5-.29-2.58-2.67-2.8-4.5-1.5zm170,2.5c.065-1.232.076-2.409-.5-3h-2.5c-.03,1.96 1.82,3.81 3,3zm1.5,2.5c2.576.298 3.322-1.788 2.5-3.5-2.66-.73-3.85,1.79-2.5,3.5zm-177.5.5c1.36.995 4.807.736 4.5-1.5-.41-3.64-4.6-1.09-4.5,1.5zm184,2c.688-.645.495-2.172.5-3.5-3.52-3.5-5.23,4.05-.5,3.5zm-189-2.5c.038.871-.112,1.555-.5,2 1.156,1.009 3.835.51 4.5-.5-.276-.89-.257-2.077-1-2.5-.21,1.13-2.65.02-3,1zm34.5,1c1.565.232 2.232-.435 2-2-1.56-.23-2.23.44-2,2zm-134.5-1c-20.979-1.83-30.219,11.792-42.5,19.5-1.682.318-3.646.354-4.5,1.5 6.126,3.073 12.329-.945 15-4.5 5.27-1.144 11.034-6.857 16.5-4.5-14.703.297-17.556,12.444-22.5,22.5 .952.214 1.256,1.077 2.5,1 2.519-2.984 3.958-9.704 8-9.5-2.739,2.595-4.751,5.915-6.5,9.5 7.592,1.554 6.488-8.127 11.5-7.5-1.807,1.945-5.291,4.594-4.5,7.5 4.8.96 4.07-6.254 8-4.5-2.729,1.245-2.958,5.132-6,6-2.851.813-7.206-1.98-10.5.5-3.09-1.576-5.417-3.916-9.5-4.5 1.717,3.283 6.972,3.028 8,7 5.172-.172 9.681.319 13.5,1.5 3.783-4.051 7.343-8.324 12-11.5 3.635-7.369 11.968-22.284 22-15-3.355-1.392-4.828,1.288-5,4.5 11.67-6.226 17.351,9.749 29.5,3 .7-3.084 1.245-6.061-.5-8-9.634-3.419-22.102,5.26-26.5-4.5 2.55-1.074.935-2.964 0-4.5 1.257-1.743 5.239-.761 6.5-2.5-5.347-.97-9.59-2.57-14.5-3zm293.5,4c1.143-1.202.086-3.023-.5-4h-2.5c-.25,2.58.51,4.16 3,4zm33,0c.066-1.232.076-2.409-.5-3-1.464.449-1.536.449-3,0-2.2,2.41 1.03,5.02 3.5,3zm.5,0c.16,2.119 1.996,3.114 4,2-.176-1.8-.765-2.41 0-4-2.01-.01-3.22.79-4,2zm-222,2c1.623.29 2.326-.34 3.5-.5v-2.5c-2.36-.19-3.6.73-3.5,3zm182-1.5c1.161.338 1.339,1.662 2.5,2 2.38-1.36-1.06-4.52-2.5-2zm-188,4c2.885-.115 5.126-.874 4.5-4.5-4.06-1.04-6.05,1.46-4.5,4.5zm233.5,0h2.5c.251-2.751-1.551-3.45-3-4.5-.83.98.1,3.22.5,4.5zm-321,0c-.768,9.475 13.613,2.321 20.5,4-1.439-2.202-.346-1.99.5-4-6.051-.35-20.299-8.65-21,0zm282.5,1.5c1.166-1.417.072-3.775-.5-5h-1.5c-1.73,2.25-.51,4.47 2,5zm1.5,2h2c.688-.645.495-2.172.5-3.5-.952-.214-1.256-1.077-2.5-1 0,1.56-1.18,3.26 0,4.5zm-200-3c-.027.86.385,1.282 1,1.5 .203-.963 1.938-.395 1.5-2-1.16-.15-1.92.08-2.5.5zm28.5,1c-.097,1.93.794,2.873 2.5,3 1.098-.967 3.274-2.737 2.5-4-2.42-.41-3.54.47-5,1zm214,1.5c-.035-1.465-.182-2.819-2-2.5-.13,1.63.59,2.41 2,2.5zm-239,2c1.921.874 4.607.104 5-2-.82-2.7-6.08-1.61-5,2zm198.5,0c1.709.675 3.048,2.49 5,1.5 .276-3.109.075-5.742-3.5-5 .22,1.89-.99,2.35-1.5,3.5zm-260.5,1c.213-.954 1.429-.905 1-2.5-2.172.172-2.791-1.209-4.5-1.5 .956,1.55 2.004,3 3.5,4zm56.5,2c1.71,1.345 3.823-.249 4.5-1.5-.183-1.483-.867-2.467-2-3-1.24,1.09-2.82,1.85-2.5,4.5zm209.5,0c2.71,1.635 4.837-1.587 3.5-4-3.05-.54-3.27,1.73-3.5,4zm-263.5,0c1.915.248 2.646-.688 3-2-.645-.689-2.172-.495-3.5-.5-.16,1.16.08,1.92.5,2.5zm83.5-.5c1.308.141 2.151-.183 2-1.5-.639-.027-.692-.641-1.5-.5-.16.68-.71.96-.5,2zm184-.5c.044,1.956.611,3.388 3,3 .576-.591.566-1.768.5-3-.67-.71-2.83-.71-3.5,0zm-264.5,2.5c1.705.295 2.627,1.373 4.5,1.5-.422-2.089.972-2.361 1-4-2.638.03-5.956-.62-5.5,2.5zm56.5,1.5c1.825.325 2.663-.337 3.5-1 .64-4.46-4.42-2.91-3.5,1zm241,0c1.539.35.961.35 2.5,0 .021-1.52.291-3.291-1.5-3-.87.46-1.1,1.57-1,3zm3,1.5c1.152.514 1.612,1.721 3.5,1.5 .981-2.468-.776-5.212-3-6 .34,2.01-.48,2.86-.5,4.5zm-223.5,0c1.899-.268 2.384-1.949 3-3.5-.581-.42-1.34-.66-2.5-.5-.77.73-.44,2.56-.5,4zm-81.5-2.5c.061,1.272.728,1.939 2,2 .876-.457 1.737-.93 1.5-2.5-1.328.01-2.855-.19-3.5.5zm15.5,2.5c1.405,1.159 2.875-.647 4.5.5 .105-1.457 1.961-2.479 1-3.5-2.62.22-5.52.15-5.5,3zm254,0c.945-2.964-2.84-3.801-4.5-2.5 1.67.67 2.38,2.29 4.5,2.5zm-213.5,2c2.926.181 4.901-1.847 3.5-4.5-3.1-.43-3.61,1.73-3.5,4.5zm-86.5-2c-1.304,1.483-.085,3.547 0,5.5 4.632,4.035 15.778,1.555 21,5-.096-1.737-1.769-1.898-2-3.5 1.728-.438 3.282-1.051 4-2.5-10.263,1.75-17.011-11.31-23-4.5zm52,1c1.198.303 2.281.719 4,.5 .29-1.376 1.245-2.088 1.5-3.5-2.85-.01-6.09-.42-5.5,3zm249-2c.175,2.159 1.341,3.326 3.5,3.5 .385-1.884-.61-2.39-.5-4-1.53-.36-1.47.87-3,.5zm-244,3.5c1.297.537 2.452,1.215 4.5,1-.573-2.073 1.052-1.948 1-3.5-1.73-1.59-5.77-.75-5.5,2.5zm-63.5,10c11.256-7.13 15.808,12.006 28,7 3.875-16.885-26.916-3.41-25.5-19.5-2.502,2.17-3.517,8.48-2.5,12.5zm311.5-8c1.138.243 2.555.992 3.5,0-.204-1.871-.441-2.627-1.5-4.5h-1.5c-.6,1.53-.25,2.02-.5,4.5zm35.5-.5c.945.112 1.104-.563 2-.5 .051-1.55-.611-2.389-1-3.5h-1.5c-.22,1.72.2,2.81.5,4zm-278-1c.945,1.439 4.374,1.165 6,.5-.27-3.75-4.93-3.33-6-.5zm19,1.5c1.438.948 2.813-1.622 3-3.5-2.22-.05-2.7,1.63-3,3.5zm27.5-1c1.971.304 2.215-1.119 2.5-2.5-1.97-.3-2.22,1.12-2.5,2.5zm199.5,3c1.575-.242 1.132,1.535 3,1 .985-1.605.748-5.541-2-5 .32,1.99-1.32,2.01-1,4zm34.5-1c1.045.288 1.427,1.24 3,1v-3c-.952-.214-1.256-1.077-2.5-1 .36,1.53-.51,1.83-.5,3zm-276,0c.23,1.936 1.294,3.039 3.5,3 .688-1.479 2.467-1.866 3-3.5-1.64-1.01-5.38-.58-6.5.5zm245,3c.935.399 1.831.835 3,1 .994-1.615.893-5.685-2-5 .29,1.96-.43,2.91-1,4zm35.5-.5c.945.112 1.104-.563 2-.5 .402-2.069-.768-2.566-2.5-2.5-.22,1.94-.55,1.78.5,3zm-266.5-.5c-.066-1.601-1.134-2.2-3-2-.69,2.37 1.83,3.03 3,2zm-8.5,1.5c1.192,1.086 3.792,1.318 5.5.5-.64-2.71-4.89-4.18-5.5-.5zm32.5,2.5c.198-2.135 2.213-2.454 2.5-4.5-2.66-1.91-6.75,3.71-2.5,4.5zm211.5-.5c1.596.429 1.547-.787 2.5-1 .012-1.845-.224-3.443-2-3.5-.38,1.3-1.55,3.31-.5,4.5zm35.5,0c-.383-1.451-.791-2.876-2-3.5-2.53,1.15-.95,5.47 2,3.5zm-31,2c1.324-1.309 1.699-4.574-1.5-4.5 .11,1.89-.51,4.51 1.5,4.5zm-333,8c1.999.166 2.775-.891 5-.5 5.33,4.167 10.639,14.663 20,10 .569-2.694-.167-2.096-.5-4.5-9.262-3.131-23.783-2.902-21.5-16-.854,3.55-3.479,7.77-3,11zm-5.5,9c9.73,2.103 9.694,13.973 22.5,13 3.53-12.141-18.564-7.662-20-17-.732-4.76 4.804-10.386 3-14-1.777,6.06-4.273,11.4-5.5,18zm19-17.5c-4.2-1.433-7.783.551-7.5,4 .583,7.088 14.786,4.42 20,8.5 .005-1.328-.189-2.855.5-3.5-5.466.13-8.703-7.53-13-9zm100,1.5c1.308.141 2.151-.183 2-1.5-.639-.027-.692-.641-1.5-.5 .11.95-.56,1.11-.5,2zm250,0c1.179.154.931,1.736 2.5,1.5 .59-2.05-1.92-3.56-2.5-1.5zm-25.5,4h2.5c.048-2.048-.068-3.931-2-4-.82,1.21-1.27,2.43-.5,4zm-226.5,1c1.452.41 3.119-3.022 1-3 .24,1.58-1.54,1.14-1,3zm229.5-1.5c.146,2.188.875,3.792 3.5,3.5 .165-1.832-.556-2.778-1-4-1.16-.15-1.92.08-2.5.5zm29,4c-.187-2.313-1.562-3.438-3-4.5-.41,3.03.71,5.65 3,4.5zm-320.5-2c1.473,1.027 2.593,2.407 5.5,2 .413-1.413-.705-1.295-.5-2.5-.7-.45-5.124-1.42-5,.5zm9.5,1c.291-1.791-1.48-1.52-3-1.5-.45,2.48 1.64,2.06 3,1.5zm281.5.5c.15-1.317-.692-1.641-2-1.5-.15,1.32.69,1.65 2,1.5zm4,2c.952.214 1.256,1.077 2.5,1-.215-1.618.658-4.325-1-4.5-.42,1.26-1.37,1.97-1.5,3.5zm-386,5c3.966-2.701 8.441-4.892 12.5-7.5-.727-.773-2.56-.44-4-.5-1.238,3.94-8.778,4.22-8.5,8zm385-3c.82-1.624.271-3.171-2-3-.46,2.13.82,2.52 2,3zm-269.5-2c-.418,3.431 2.225,5.288 5,4-.944-1.547-.739-2.754-1-4-.73-.73-3.27-.73-4,0zm273,3c1.152.514 1.612,1.721 3.5,1.5 1.494-1.018.291-3.057 0-5h-2.5c-.56.95-.64,2.37-1,3.5zm-284-2.5c-1.482,1.455 2.213,3.887 3.5,2.5-1.519-.616.542-1.719 0-3-1.33.01-2.86-.19-3.5.5zm4.5,3c1.708.152 5.053-.044 6-1-1.27-1.52-6.18-2.44-6,1zm276,1c1.575-.242 1.132,1.535 3,1 .692-1.058-.162-3.909-2.5-3.5-.42.59-.66,1.35-.5,2.5zm-237,4c.673-1.511 3.024-3.953 2-5.5-.9,1.3-5.87,4.15-2,5.5zm266-4.5c-.4,2.075 1.925,2.929 3,2 .38-2.05-1.7-3.14-3-2zm-22,2.5c.953.213.904,1.429 2.5,1 .992-.946.243-2.362 0-3.5-1.45.23-2.28,1.06-2.5,2.5zm-275.5-.5c.334-2.167-2.32-1.346-4-1.5-.33,2.17 2.32,1.35 4,1.5zm14,.5c.39.11.581.419.5,1 2.361.028 2.841-1.825 4-3-2.21-.04-3.61.73-4.5,2zm-12.5,0c.54,1.46 2.381,1.619 4.5,1.5v-2.5c-1.04-.79-4.66-.95-4.5,1zm5.5,2c1.739.326 4.172,1.839 6,.5 .074-1.908-1.259-2.408-1.5-4-2.91-.24-4.53.81-4.5,3.5zm266.5,3.5c1.021.646.909,2.424 3,2 .984-1.788-.232-2.668 0-5-2.52-.52-1.77,2.24-3,3zm.5-6.5c-1.89-.056-2.688.979-3,2.5 .543,1.131 2.042,2.811 3.5,1.5-.36-2.25.16-2.49-.5-4zm-255.5,6c.947-1.386 1.925-2.741 3-4-3.37-1.29-6.27,3.33-3,4zm284.5-1.5c-.282-1.218-.428-2.572-2-2.5-.13,1.63.59,2.41 2,2.5zm-379,2c-.962-1.538-1.754-3.246-4.5-3 .026,2.48 3.04,1.96 4.5,3zm96.5,0c.581.419 1.34.66 2.5.5-.659-1.55 1.482-2.773 0-3.5-.98.85-2.13,1.54-2.5,3zm281,3.5c1.331-1.696 1.628-4.734-1-5-1.54,1.63-2.01,4.5 1,5zm4-2c-.725-.609-.67-1.997-2-2-.42,1.47 1.35,3.25 2,2zm-26.5,3c1.334-.34 1.413-3.44 1-4h-2c-.01,1.52-1.56,4.08 1,4zm4.5,3v-3c-1.056-.444-1.478-1.522-3-1.5-.75,2.37-.2,4.78 3,4.5zm-247-1.5c-7.56,2.119-15.517,9.42-23.5,15-8.882,6.209-17.123,12.646-22,17 5.311,7.366 10.756,17.23 19.5,19.5 .632-10.368 3.597-18.403 5-28 7.391-12.644 31.545-14.431 47.5-12.5-2.53-11.48-13.11-14.75-26.5-11zm34.5-.5c-1.448,3.427-6.219,3.551-6.5,7-.352,4.312 6.163,7.368 10,9.5 1.35-4.78-.3-13.16-3.5-16.5zm206,.5c-.896,1.785.77,2.952 2.5,3.5 .992-.984.318-2.856 0-4-1.16-.15-1.92.09-2.5.5zm32.5,5c-.672,2.189-.629,4.403 2,4.5 .608-3.203-2.796-6.468-5.5-8-2.25,1.86 1.54,5.65 3.5,3.5zm-51.5,49c1.168.683 1.709-2.089 2.5-3.5 2.943-5.251 6.206-11.55 8.5-16.5 1.675-.825 3.522-1.478 4-3.5-5.934-4.733-12.373-8.96-21.5-10.5-8.418-3.914-20.069-13.263-30.5-16-7.245-1.901-16.448-2.069-21,3.5 28.803-5.146 45.505,13.475 66,21.5 3.45,10.69-6.44,16.07-8,25zm24-47c.635-1.395 1.232-2.47.5-4h-2c-.75,1.59-.75,4.07 1.5,4zm3.5,3c.688-.645.495-2.172.5-3.5-.952-.214-1.256-1.077-2.5-1-1.39,1.91-1.03,4.58 2,4.5zm21.5,1c.321,1.512.781,2.885 2.5,3 .11-.39.419-.582 1-.5v-3c-1.79-.96-1.83.2-3.5.5zm-23.5,1c1.314-.148.394,1.94 2,1.5 1.68-1.3-1.77-3.55-2-1.5zm27,4c4.224.79 3.811-3.876 1.5-5-.13,2.04-1.86,2.47-1.5,5zm-19.5,0h2c.875-2.273.007-3.36-2-3.5-.71.67-.71,2.84 0,3.5zm68,7.5c.216-3.389-.251-10.411-4.5-11-.24,5.41 2.21,8.13 4.5,11zm-6-10c-.688.021-1.098-.235-1.5-.5-7.237,4.764-18.558,8.107-22,15 3.36-1.498 6.957-4.481 11-6 2.888-1.084 8.607-3.43 11-3 7.532,1.353 2.323,17.218 11.5,16-2.27-8.23-8.39-12.6-10-21.5zm-64.5,4.5c1.152-1.708 1.158-3.874-1.5-4-1.19,1.44.23,3.48 1.5,4zm24-1c.384,1.616 1.384,2.616 3,3 1.49-1.91-1.26-5.65-3-3zm-23,.5c-.039,2.206 1.063,3.27 3,3.5 .688-.645.495-2.172.5-3.5-1.8.42-2.42-1.12-3.5,0zm7,6.5c.765-1.59.176-2.2 0-4h-3c-.76,2.32-.36,4.55 3,4zm21-1c.237-1.57-.623-2.043-1.5-2.5-.97.97-.52,3.07 1.5,2.5zm-102-1.5c-8.857-1.398-22.679-1.164-25,4 11.179-2.801 27.626-1.083 36.5,1-1.33-2.8-6.86-4.26-11.5-5zm143,16.5c-1.392-4.797-2.714-15.584-8-17h-1c1.77,6.9 3.68,13.66 9,17zm-32.5-6.5c4.085-.582 7.042-2.291 10.5-3.5 7.134,3.366 3.33,17.67 11.5,20 4.546-9.297-11.91-15.583-4.5-24.5 8.066,2.267 3.919,16.748 13.5,17.5-2.805-6.362-7.229-11.104-8.5-19-9.69.98-15.8,5.54-22.5,9.5zm-7-4c-.035-1.465-.182-2.819-2-2.5-.37,1.88.56,2.44 2,2.5zm32.5,16c2.584-1.89-.777-4.373-2-7-2.07-4.45-1.914-10.158-6-11h-1c.42,7.85 5.15,12.35 9,18zm-48.5-13c.326-2.326-.175-3.825-2.5-3.5-.22,2.23.28,3.73 2.5,3.5zm-112-1c10.557,5.276 35.089-3.422 33.5,14 6.414-1.243 9.943,13.707 3.5,16.5-8.978-.524-19.974-1.691-25.5-4 7.236,4.705 23.513,9.392 32,2.5 2.825-11.188-6.269-16.794-8-26.5-6.88-5.23-25.99-6.21-35.5-2.5zm115,5c.85-1.739.029-3.751-2-4-1.11,1.48-.49,4.57 2,4zm19.5-.5c9.759,1.075 6.369,15.298 12,20.5 1.413.413 1.295-.705 2.5-.5 1.961-9.816-7.046-12.937-6-23.5-3.32.68-6.27,1.73-8.5,3.5zm11-3.5c-.084.583-.79.543-1.5.5 .614,8.386 4.43,13.57 8,19 .67-5.41-2.57-15.37-6.5-19.5zm-34,4.5c.467-2.159-1.671-4.296-3-3 1.01,1 1.64,2.37 3,3zm-242.5,27c-1.893-10.081 5.945-16.712 5-27.5-.639-.027-.692-.641-1.5-.5-15.634,16.199-30.112,33.554-47.5,48 9.806,2.668 20.225,6.834 32,6 9.221-.653 17.231-7.379 23.5-10.5-2.31-7.51-10.2-8.56-11.5-15.5zm136-20c.837-.83.397-2.936.5-4.5-3.147-3.02-9.886-2.448-15-3.5 3,4.5 10.13,4.87 14.5,8zm51,10c.84,9.698-4.782,18.473-8,26-2.219,5.19-4.425,10.7-6.5,15-2.175,4.506-7.373,14.836-12,15-4.853.172-6.967-7.288-11.5-7 2.84,6.767 10.74,13.288 19,7.5 3.646-6.755 9.766-16.267 13.5-26.5 1.084-2.97 1.244-7.151 2.5-11 1.127-3.454 3.286-6.78 4-9.5 3.354-12.782-3.706-21.82-10.5-26.5 2.07,4.73 8.85,9.54 9.5,17zm15.5,31c1.951-7.89 4.283-15.871 6.5-24 2.123-7.786 5.962-15.712 5-23.5-3.695-.934-3.978,3.179-5,5-12.085,21.52-23.411,46.793-36,66.5 4.823-3.222 5.788-9.135 8.5-14 7.037-12.623 17.972-23.715 23-38 1.232-3.5 1.189-8.79 5.5-10.5-1.36,13.64-7.94,24.73-7.5,38.5zm43.5-44c-.205-1.205.913-1.087.5-2.5-.935-.399-1.831-.835-3-1-.22,2.22.83,3.17 2.5,3.5zm19.5-1.5v-2h-1.5c.21.96.18,2.16 1.5,2zm2.5,9.5c1.403,3.458 4.078,8.949 7.5,8.5-2.9-4.125-1.806-16.508-8.5-18.5-.93,3.71-.16,7.14 1,10zm-187,10.5c5.417-4.084 9.747-11.918 12-17.5-5.44,4.4-10.03,9.64-12,17.5zm2,15.5c-5.325,4.595-12.1,5.914-15.5,12.5 6.669-4.058 13.237-10.655 22.5-8.5 5.229,1.217 8.286,6.589 14,7-.273-5.925-9.039-7.604-12-12.5 2.938-10.562 6.243-20.757 10.5-30-.11-.39-.419-.582-1-.5-7.82,10.11-9.14,23.92-18.5,32zm174-31c-1.071,6.081 3.395,10.849 5.5,16.5 1.174.16 1.877.79 3.5.5-2.384-5.25-2.268-11.78-5-17.5-1.44.06-3.27-.27-4,.5zm-203.5,8c6.252,1.28 12.419,18.294 17.5,17.5 7.072-1.105 1.815-14.747 1-19-4.361-4.639-14.684-3.316-20.5-6.5 .64,2.7 1.14,5.53 2,8zm194,.5c-.418-2.627 1.75-5.721-1.5-7.5-1.262,1.739-3.903,2.097-4.5,4.5 8.25,2.083 4.551,16.116 8.5,22.5 2.155.664 3.537.177 5-1-.24-7.3-6.45-11.92-7.5-18.5zm-197,26.5c4.653,2.067 14.474,3.902 15-1.5 .623-6.396-11.901-9.211-14-17.5-1.317-5.204 1.36-8.817-2.5-13-1.17,9.53-2.42,24.62 1.5,32zm181.5-25.5c1.665,2.888 6.538,7.724 3.5,12-.42-4.747-1.082-9.251-6-9.5-1.892,7.37 5.267,13.96 6.5,21.5 4.385-1.296-1.09-6.756.5-9.5 2.133,3.323 2.11,11.056 8.5,8.5 .838-10.168-11.491-17.659-6.5-27.5-2.15,1.52-4.25,3.09-6.5,4.5zm5.5-4.5c.109-.628.778-1.022-.5-1-5.426,2.574-10.603,5.397-15,9 6.303,5.197 1.629,21.371 11.5,23 2.952-7.551-6.55-13.577-6-23.5 2.61-3.22 6.25-5.41 10-7.5zm18.5,17c-1.342-5.593.935-16.318-7-16.5-.46,6.33 3.76,12.22 7,16.5zm-17.5-13c.056,4.5 1.973,7.534 4,11.5 1.328,2.599 2.463,6.159 5,7-.87-5.57-.09-24.18-9-18.5zm-12.5,29.5c.002-4.222-3.003-9.624-6-12.5-.26,4.44-.04,11.78 6,12.5zm-81-11.5c-1.118.215-.202,2.464-.5,3.5-3.354.979-6.325,2.342-8,5 1.684,3.418-.575,4.005-.5,8.5 3.245,2.155 10.076,1.275 10-3-2.845,1.074-5.173-.185-6-2.5 3.924-3.743 8.018-7.316 12.5-10.5-2.59-.06-5.85-1.6-7.5-1zm-138,15c.15,2.017.738,3.595 3,3.5 1.002-1.486 3.574-4.47 1.5-6-1.15,1.19-3.07,1.6-4.5,2.5zm-1.5,6.5c1.183-1.245 1.467-4.381-1-4.5 .02,1.82-.28,3.95 1,4.5zm52.5,2.5c3.281,1.789 4.61-2.273 5-5-2.81.53-4.16,2.51-5,5zm16.5,13c16.709,1.532 29.446-7.772 42.5-12 3.577-1.159 10.106.093 11-5.5-14.55,7.12-34.74,12.93-53.5,17.5zm52.5-11v4c2.775,3 5.122-.102 8-1 .381,2.619.641,5.359 4,5 3.007-4.587-2.117-9.788 1-12.5-4.157.657-5.488-1.512-8.5-2-.48,3.19-1.62,5.72-4.5,6.5zm-119-.5c1.232.066 2.409.076 3-.5-.021-1.646-.844-2.489-.5-4.5h-2c-.89.95-.36,3.31-.5,5zm261,9.5c4.241-.759 7.485-2.515 11-4-2.551-3.949-5.048-7.952-9.5-10-1.28,4.95-.07,9.79-1.5,14zm-263-4.5c.444-1.056 1.522-1.478 1.5-3-1.085-.748-.798-2.868-2.5-3-.56,1.61-.49,5 1,6zm48.5-2c1.61-.223 2.903-.763 2.5-3-2.08-.28-3.31,1.95-2.5,3zm4-2c-.079,2.079.921,3.079 3,3 .773-.727.44-2.56.5-4-1.83-.32-1.92,1.09-3.5,1zm-49,1.5c-.242,1.909.142,3.191 1,4 2.891-.442 3.926-2.74 4.5-5.5-2.24-1.18-3.81.7-5.5,1.5zm40,17c2.893-.884 1.908-4.285.5-6-2.092,1.623-5.811,2.286-5-2.5-5.707.702-6.859-5.217-9.5-7-5.536-3.738-11.376-2.152-19-2.5 .136,1.698-.387,4.054.5,5 3.163.83 2.782-1.885 4.5-2.5 1.346,2.686-2.482,4.058-4,5.5v4c.637.696 2.449.218 2.5,1.5-.391,4.17-6.179,5.404-4,10.5 4.013,1.013 3.009-2.991 5.5-3.5-.001.502.405.595.5,1-1.212,2.788-3.297,4.703-6.5,5.5-.429,1.596.787,1.547 1,2.5 3.877.71 3.756-2.577 6-3.5 .888,4.962-6.879,3.687-4,9 2.115.748 3.213-2.076 4.5-.5-.47,2.197-3.909,1.424-3.5,4.5 .958,1.142 1.917,2.28 3.5,1.5 .742-1.592.678-3.988 2.5-4.5 1.631,3.905-3.015,5.572-4.5,8 .676,1.423 2.803,1.394 4,1 .774-1.226.302-3.698 2.5-3.5-.177,2.989-1.42,4.913-4,5.5 .005,1.328-.189,2.855.5,3.5 1.794.414 2.419-1.127 3.5,0-2.809,2.102-2.233,4.988-5,7.5-.068,2.735 2.207,3.126 5,3 .859-.642.01-2.99 1.5-3 2.214,3.257-2.174,3.674-2.5,6-.241,3.184 3.464,2.068 4,2 .667,2.667-2.667,1.333-2,4 .928,1.496 3.583-.636 4,.5-1.733,2.767-3.609,5.391-5,8.5 .807,1.462 2.577-.797 3,.5 .428,2.095-2.238,1.095-3,2v3c3.727,1.075 3.764-3.694 6-2.5-.767,2.4-2.417,3.916-5,4.5-.227,2.394.543,3.791 2,4.5 2.483-.851 2.076-4.591 5-5-.447,3.72-3.98,4.354-5,7.5 .096,1.571.929,2.404 2.5,2.5 2.017-.149.883-3.45 3-3.5 .629,1.527-.92,4.579-3,5-.154,1.821.08,3.254.5,4.5 2.103.604 2.192-.808 3.5-1-.001.502.405.595.5,1-1.323,3.615-8.474,7.695-3.5,11.5-.824,4.084 2.1,5.037 4,5-1.773,1.091-5.413,6.304-1,7.5-.678,2.021-4.375.613-3.5-2-3.138.308-2,5.315.5,5.5 .774-.692 2.382-3.103 3-1-.817,1.35-1.955,2.379-3.5,3-.207,2.206.136,3.864 1,5 .931.479 1.671-1.497 2,0-1.407,1.95-2.923,4.692-.5,6.5-.501-.002-.595.405-1,.5-2.061.394-.939-2.394-3-2-1.113.685-1.471,3.778-.5,5 2.533.699 1.373-2.294 3.5-2-1.525,4.434 1.2,4.023 2.5,6-.871-.037-1.555.111-2,.5-1.523-.478-1.149-2.851-3.5-2.5 .06,1.44-.273,3.273.5,4 1.036.298 3.285-.618 3.5.5 .14,1.807-2.19,1.144-3,2 .401,1.734-.745,1.922-.5,3.5 1.986,1.45 2.099,2.812 1.5,6 .731,1.103 3.96-.294 4,1.5-3.672.161-3.897,3.77-7.5,4 .009,1.571-1.651,2.789-.5,4 2.828.899 2.774-2.86 4.5-1.5 .114,2.613-2.182,2.818-4,3.5v3c.363,1.138 3.46-.461 3,1.5-.128,1.038-2.197.137-2.5,1v2.5c.641.858 2.99.01 3,1.5-1.505,1.995-4.522,2.479-4.5,6 .674.992 3.491-.157 3.5,1.5-.889.444-1.271,1.396-3,1 .361,2.255-.162,2.496.5,4 1.036.298 3.285-.618 3.5.5-.01,1.49-2.359.642-3,1.5v2.5c.303.863 2.372-.038 2.5,1-.105.561-.555.778-1,1-1.856-.311-1.87-2.464-4.5-2-.537,1.297-1.215,2.452-1,4.5 1.16-.159 1.92.08 2.5.5 .877-.789 1.038-2.296 2.5-2.5 1.185,4.519-4.171,2.495-3.5,6.5 2.057,1.856 4.099-1.86 5,.5-.701.799-1.723,1.277-3,1.5v2.5c.347.986 2.79-.123 3,1-.698,2.157-3.346.392-4.5,0 .005,1.328-.189,2.855.5,3.5 1.69.799 2.133-2.122 3-.5-.917,2.177-9.406,3.329-4,7 1.787-.38.339-3.994 2.5-4 .479,2.085-.239,2.467.5,4.5 1.466.742 1.857-.565 2.5,1-.867,2.209-3.485-.276-4.5-1-.382,1.18-.985,3.455 0,4.5 2.193.526 1.642-1.691 3.5-1.5-.44,3.354-2.954,4.767-1,8 1.828.706 2.679-.713 3.5,1-1.87.297-2.585,1.748-4,2.5 .419,1.414.581,3.086 1,4.5 .879.288 2.938-.604 3,.5-1.217,1.508-2.28,2.703-1.5,5 1.24-.073 2.426-.093 2.5,1-1.905,2.262-2.637,5.696-3,9.5 1.288,1.659 2.403-1.851 3,.5-.13.703-1.097.57-1.5,1-.195,3.028 1.932,3.734 3.5,5h-4c.364,1.136-.901,3.9 1,3.5 1.107-.393-.095-3.096 2-2.5 .803,3.636-2.303,3.364-1.5,7 .807,1.462 2.577-.797 3,.5-.837.829-.398,2.936-.5,4.5 .586,1.236 2.078-1.213 2,1-1.221,1.834-3.104-1.383-4,0-1.102,1.161.099,2.839.5,4 1.277.539 1.75-2.152 2.5-.5-.851,1.482-1.271,3.396-1,6 .592.741 1.889.778 2.5,1.5-1.755,1.607-2.726-.6-4-1 .005,1.328-.189,2.855.5,3.5 1.891.724.959-1.374 2.5-1 .718,3.219-3.033,1.968-2,5.5 1.05,1.263 1.95-1.263 3,0-2.137,1.191-1.153,5.887.5,7.5-.688-.021-1.098.235-1.5.5-1.315.148-.394-1.939-2-1.5-1.68.32-1.603,2.397-1.5,4.5 1.779,1.609 2.19-1.999 3.5-.5-.778,2.222-3.568,2.432-3,6 .748.085 1.845-.179 2,.5-.676,2.161-2.803.27-4,0-.762,2.071-4.208,1.459-3.5,5 .303.863 2.372-.038 2.5,1-.074,1.093-1.26,1.073-2.5,1 .413,1.413-.705,1.295-.5,2.5 .203.964 1.938.395 1.5,2-.501-.002-.595.405-1,.5-1.618.618-.382-1.618-2-1-1.256.911-3.119,1.214-2.5,4 1.729.682 2.356-2.246 3.5-.5-.752,2.248-4.289,1.711-3.5,5.5 1.251-.062 1.565-.954 2,.5-2.287,2.062-2.96,5.215-5.5,8 .583.084.543.791.5,1.5 .931.479 1.671-1.497 2,0-2.168,1.754-4.004,4.486-1.5,7-1.464,1.472-2.026-.512-3-1-.112.945.563,1.104.5,2 10.936-1.397 13.227-11.44 19-18-.215-.785-1.573-.428-1-2 2.04.549 3.57.21 4-2-1.432.099-2.729.062-2.5-1.5 .944-.615 5.265,1.084 5-2-1.013-1.08-3.989,1.329-3.5-2 2.773-.557 4.402-.024 5-2-.85-1.226-4.625,1.557-4.5-1.5 2.498.938 3.414-.767 4-3-1.381.556-2.804.779-2.5-1.5 1.16.159 1.919-.08 2.5-.5 .722-2.52-1.814-3.436-.5-5 1.315-.148.394,1.939 2,1.5 1.098-.83 2.924-2.711 2-4-.833-.062-3.182,1.619-3-.5 1.858-1.309 4.892-1.441 5-4.5-.937.111-3.313,1.289-4,0 .863-.304-.039-2.372 1-2.5 .583.084.543.791.5,1.5 1.601-.066 2.2-1.134 2-3-1.376-1.075-2.088.29-3.5-.5 .205-1.205-.913-1.087-.5-2.5 1.099-1.311 1.661,1.551 3,0 .363-1.529-.863-1.471-.5-3-3.529.923-5.359-3.095-3.5-4.5 .444.889 1.396,1.271 1,3 2.988-.218.837-4.548 1-6.5-1.768-.297-4.491-1.52-3-3.5 1.162.219 1.338,2.208 2.5,1v-3.5c-1.326-.008-2.944.277-3-1-.14-1.14.121-1.88 1-2 .534.467.156,1.845 1.5,1.5v-3.5c-1.326-.008-2.944.277-3-1 .085-.748-.179-1.846.5-2 1.153-.153.556,1.444 1.5,1.5 1.418-1.072.829-2.664.5-4.5h-3c.381-1.784-1.549-3.434.5-4 .157.676.712.955.5,2 2.244.077 2.086-2.247 2-4.5h-3c.134-1.49-1.399-3.045.5-3.5-.141,1.308.183,2.15 1.5,2 1.243-.757 1.773-2.227 1.5-4.5-1.159.594-5.385-.298-2.5-2.5 .778.131.347,1.097 0,1.5 1.573.239 1.955-.712 3-1 .363-1.529-.863-1.471-.5-3-2.488.943-4.2-1.759-2-2.5-.091,1.091.409,1.591 1.5,1.5 .11-.39.418-.581 1-.5v-3c-.945-.112-1.103.563-2,.5-.506-.896-1.914-3.069 0-3.5 1.198-.198-.277,2.277 1.5,1.5 1.49-.01.641-2.358 1.5-3-.674-.992-3.491.157-3.5-1.5-.141-1.308.183-2.15 1.5-2-.14,1.14.121,1.88 1,2 .914-.753 1.531-1.802 1.5-3.5-.945-.112-1.103.563-2,.5-.506-.896-1.914-3.069 0-3.5 .018,2.337 1.422.953 3,1-.361-1.528.511-1.822.5-3-2.813.246-3.909.628-4.5-2 .501.002.595-.405 1-.5 .785.215.427,1.572 2,1 .74-.26 1.26-.74 2-1 .011-1.178-.861-1.472-.5-3-2.16,1.078-4.653-.133-3.5-2 .954.213.905,1.429 2.5,1 .83-1.668 3.24-2.712 2-5-1.174.159-1.877.79-3.5.5-.358-.532-1.952-2.303-.5-3 1.315-.148.394,1.939 2,1.5 1.758-.575 3.174-1.493 3-4-1.109-.962-2.031,1.294-4.5.5 .299-.891-1.465-2.076 0-2.5 2.289,2.272 4.914-.147 5-3-1.675.122-3.152,1.076-4-.5 .273-.727-.584-2.584.5-2.5 .74.093.458,1.208.5,2 2.877.044 4.286-1.381 4-4.5-2.985,2.512-7.453-2.765-3.5-4-.066,1.232-.076,2.409.5,3 3.713.968 4.064-2.685 3-5-1.99-.323-2.01,1.323-4,1-.157-.676-.712-.955-.5-2 2.859.945 6.269-1.094 5-4.5-2.038-.371-1.722,1.611-4,1-.157-.676-.712-.955-.5-2 .581.42 1.34.659 2.5.5 .636-1.197 1.826-1.841 1.5-4-2.18-.383-2.738,2.512-4.5,1 1.274-1.877 4.651-3.235 3.5-6-1.789-1.541-3.171,1.851-5,0 .889-1.445 3.026-1.641 3-4-.996-.505-2.136-.864-2.5-2 1.006-4.896-1.111-6.46-2.5-10 2.753.789 5.197-.918 5-4.5-1.517-.149-2.663,2.626-4,1 1.142-1.858 3.691-2.309 3.5-5.5-.884-1.732-2.481.146-3.5-1 2.84-2.235 2.259-4.176.5-7 .734-1.179 1.055-.931.5-2.5 1.708-.792 3.874-1.126 4-3.5-1.19-1.758-2.385,1.833-3.5,0 4.466-3.115 1.166-10.74 0-14.5 1.441-1.449 1.564.974 3.5.5 .466-1.201 2.009-1.324 1.5-3.5-1.458-1.845-2.957,1.854-3.5-.5 .945-1.222 1.91-2.423 2.5-4-.136-2.418-4.21-7.006-1-8-.074,1.24-.093,2.427 1,2.5 1.922-.912 3.118-2.549 3-5.5-2.206.515-5.341-.625-3.5-2.5 .954.213.905,1.429 2.5,1 1.438-.961 1.031-3.796-.5-4.5-.501,1.061-2.018,2.423-3,1.5 1.615-2.052 4.314-3.019 4-7-.592-1.231-1.889,1.024-2.5-.5 1.299-.867 2.211-2.123 3-3.5-2.844-5.977-3.261-14.021-2.5-22.5-1.408-1.156-2.858.631-4-1 .697-.97 2.588-.745 3.5-1.5-1.464-4.226-3.884-8.363-2-13-1.259-.433-2.183-3.784-1-5 1.032,1.134 1.022,3.312 2,4.5 3.167-.094 3.972-3.165 3-6-1.724.812-4.417,2.687-5-.5h3c.949-1.217 1.861-2.472 1.5-5-1.994-.494-1.506,1.494-3.5,1-.73-.437-1.936-.397-1.5-2 2.629,1.582 3.401-1.101 4.5-2.5-.071-1.929-1.689-2.311-1.5-4.5-1.341-1.729-2.213,2.783-3.5,1 1.327-2.839 4.217-4.116 3.5-9-1.379-.173-3.511,1.436-4.5,0 2.254-1.039 6.028-2.227 4.5-5.5-2.401,1.256-4.565-.316-5-2.5 .21-.956.181-2.152 1.5-2-.843,1.641.266,2.204 1,3.5 2.084-.249 2.581-2.086 3-4-2.286-.154-6.934.681-5.5-4.5-2.042-.306-3.443-3.869-2-6 1.04,1.46.53,4.48 3,4.5zm70.5-16.5c2.01.176 3.658-.008 4-1.5-1.77.07-2.85.83-4,1.5zm0,3c.252,4.101 6.196,4.507 7,.5-1.18-4.47-4.15-2.85-7-.5zm-68,3c2.008.008 1.39-2.61 1.5-4.5-.945.112-1.103-.563-2-.5-.8,1.34-1.83,4.43.5,5zm6.5,0c.399-.935.835-1.831 1-3-2.25-5.67-6.9,3.1-1,3zm53.5-2c2.676.009 5.224-.109 5.5-2.5-1.8-.89-6.08-.58-5.5,2.5zm-47,2.5c-.627-1.873-1.255-3.745-3.5-4-1.78,2.32 1.12,5.86 3.5,4zm-59,2c.688-.021 1.098.235 1.5.5 1.257-.576 1.573-2.093 2.5-3-.8-5-6.45-2.03-4,2.5zm72,178c-2.136.136-2.175-1.825-3.5-2.5-1.338.869-2.97,3.41-1.5,5.5 2.73.07 3.82-1.51 5-3zm1,6.5c-1.649-.018-1.912-1.422-2-3-3.122-.455-2.471,2.862-2.5,5.5 1.75.702 3.201-1.402 4,0-.675,1.325-2.636,1.364-2.5,3.5 .131,2.369 3.104,1.896 4,3.5-2.177,1.557-3.885-.908-5.5-1.5-1.244-.077-1.548.785-2.5,1-.066,1.232-.076,2.409.5,3 2.867.867 1.885-2.115 4-2 .738,3.571-3.366,2.3-3.5,5 .061,1.272.728,1.939 2,2 1.315.148.394-1.939 2-1.5 1.34,1.705-.872,3.2-2.5,3.5v3.5c.674.992 3.491-.157 3.5,1.5-1.978,1.969-8.637,7.594-3,9.5 1.545-.121.845-2.488 3-2 .232,2.398-1.356,2.977-3,3.5v3c.363,1.138 3.461-.461 3,1.5-.489.677-1.686.648-2,1.5-.475,2.808 1.335,3.332 3,4-2.187,2.24-1.504,5.63.5,7.5-2.654,1.803.728,4.027 1.5,5.5-.947,3.053-4.749,3.251-4,8 .56,1.439 3.66.34 4,2-1.955.712-4.609.725-4,4 .884,1.732 2.481-.146 3.5,1 .638,1.972-1.368,1.299-2,2v3c.637.696 2.449.218 2.5,1.5-2.467,1.7-4.551,3.783-5,7.5 1.478,1.26 1.469,1.406 4,1-2.452,1.532-3.382,5.333-2.5,7.5-2.148.481-.877-2.456-2.5-2.5 .084,1.084-1.773.227-2.5.5-.833.667-.167,2.833-1,3.5 1.668,1.418 1.731-1.971 3.5-2 1.011,1.262-1.083,2.619-.5,5 2.255.693 2.497-1.944 4-.5-.709,1.457-2.106,2.227-4.5,2-.522,1.144-.317,3.016-1,4 .747.753 2.851.149 2.5,2-.639.694-2.361.306-3,1-.491,2.043.055,2.021 0,4.5 .839.827 2.936.397 2.5,2.5-1.734.401-1.922-.745-3.5-.5 .245,1.578-.901,1.766-.5,3.5 .224,1.443 2.151,1.182 2.5,2.5-2.494.34-3.413,2.254-3,5.5 .747.753 2.851.149 2.5,2-2.899-.232-2.681,2.652-3,5 .349,1.318 2.276,1.057 2.5,2.5-1.728.893-3.282-.034-4-1.5-.393-2.059.768-2.566.5-4.5-1.232.066-2.409.076-3-.5 .819,3.681 2.208,6.792 4.5,9 1.492.111 1.7-1.846 3-.5-.484,1.35-1.254,2.413-3,2.5 1.36,2.695 2.255,6.121 4,9 4.178,6.893 12.434,17.752 20,19-.59-3.81-3.001-3.675-5.5-3.5 .138-.876-1.408-2.495 0-3 .785.215.428,1.572 2,1 .696-1.456 1.242-2.479 0-3.5-.892-1.519-1.959,1.849-3,0 1.938-2.508 1.868-4.025 1.5-8.5-.776-1.432-2.333,1.042-3-.5 .507-1.66 2.768-1.566 2.5-4-.069-1.598-2.23-1.103-3-2 2.939-.64.1-4.399 1.5-6 .905.762-.095,3.429 2,3 2.108-.933.963-2.563.5-4.5-1.575-.241-1.132,1.534-3,1-.979-.069-2.372-2.23-1-3 .963.203.395,1.938 2,1.5 .13-.703 1.097-.57 1.5-1 .429-1.596-.787-1.547-1-2.5-1.573-.239-1.954.712-3,1-1.001-.544-3.321-2.638-1-3.5 .437.73.397,1.937 2,1.5 .624-1.21 1.928-1.738 1.5-4-1.528-.361-1.822.512-3,.5-.506-.896-1.913-3.069 0-3.5 1.198-.198-.277,2.277 1.5,1.5 1.792-.308.832-3.365.5-4.5-2.891,1.04-4.811-2.45-2.5-3.5 .502.664.473,1.86 1.5,2 1.462-1.033.623-2.93 0-4.5-.879-.288-2.938.604-3-.5 .43-1.57-1.169-5.169 1.5-4.5-.109,1.829-.687,1.918 0,3.5 3.088-.744-.103-5.819.5-7.5-2.158,3.001-6.42-2.297-2.5-3.5-.937.952-.055,1.256 0,2.5 1.573.239 1.954-.712 3-1-.008-3.74-.562-3.829-.5-7.5-1.252.062-1.565.954-2-.5-.075-1.241.258-2.075 1-2.5 1.198-.198-.277,2.277 1.5,1.5-.166-1.999.892-2.775.5-5-.727-.273-2.584.584-2.5-.5 .273-.727-.584-2.584.5-2.5 1.891.312-.541,2.089 2,2 .419-1.081 1.295-1.705 1-3.5-.304-.863-2.372.038-2.5-1-.073-1.24-.093-2.427 1-2.5 .533.467.155,1.845 1.5,1.5 .688-.645.495-2.172.5-3.5-2.534.796-3.476-3.367-1.5-4 1.095,1.04-.438,1.616.5,2.5 2.076.058 3.308-3.334 2-5-1.848,2.369-4.188-3.732-1-3.5-.642.657-.642,1.843 0,2.5 2.134-.033 2.879-1.454 2.5-4-1.326-.008-2.944.277-3-1-.021-1.521-.291-3.291 1.5-3 .25,1.573-1.09,1.954 0,3 2.472.305 2.305-2.029 2.5-4-1.14.14-1.88-.12-2-1 .086-1.414-.43-3.43 1-3.5 1.491.717-1.314,2.606 1,2.5 1.475.874 1.77-2.841.5-4-1.514.153-1.786,1.547-4,1-.303-1.101-1.256-3.727.5-4 .938.884-.595,1.46.5,2.5 2.938-.603 3.058-2.326 2.5-5.5-.593-.914-3.734,1.226-3.5-1.5 .952-.937 1.256-.055 2.5,0 .787-1.213 1.865-2.135 1.5-4.5-1.57-.252-2.043,1.179-2.5-.5 3.959-1.105.937-6.095 3.5-8.5 1.105.987-.979,3.64.5,5 3.136.303 3.805-1.862 3.5-5-3.722.722-4.009-1.991-6.5-2.5 3.297-1.862 1.428-4.992 2-8 .833.667.776,2.224 1.5,3 1.957.29 2.903-.431 4-1-.255-1.411-1.21-2.123-1.5-3.5-1.361.6-3.559,1.914-3.5-1 1.789.953 3.177-.141 3.5-2-.663-1.977-2.114-2.395-3.5-2.5 .567-1.099 1.672-1.661 2-3-2.276-2.214-.541-5.131-1-7.5 1.614-.447.702,1.631 1.5,2 2.683.182 4.547-2.556 3-5-1.785.823-4.973.857-4.5-2 1.818,1.284 3.533.938 5.5,0v-3c-.652-.9-3.175,1.099-3-1.5 2.236.403 2.777-.89 3-2.5-.532-.968-2.303-.697-3-1.5 .567-1.099 1.672-1.661 2-3-1.531-.969-.799-4.201-1.5-6 2.8,2.331 3.642-1.577 5.5-3 1.589.976-1.129,3.357.5,4.5 4.604.258 3.288-3.618 2-6-3.342-.122-6.348.707-8.5-.5 2.152-.848 4.132-1.868 4.5-4.5-1.188-1.65-3.366-.041-4.5-1 .642-.858 1.996-1.004 2.5-2-.097-3.312-2.1-4.188-1-7.5 3.105.605 3.431-1.569 4-3.5-1.185-1.377-3.479-.533-4.5-1 4.036-1.405-.321-8.28 2.5-9-.413,1.413.705,1.295.5,2.5 2.647.48 3.392-.941 4-2.5-.561-.105-.778-.555-1-1-.986.284-6.377.912-4.5-2.5 1.179.154.931,1.736 2.5,1.5-.271-1.771 1.771-1.229 1.5-3-.528-2.492-3.095-1.333-4.5-2 3.415-1.353 2.465-4.884 2.5-7.5 1.23.437 1.119,2.214 3,2 1.002-.831 2.324-1.343 2.5-3-2.047-1.065-2.075-2.838-1.5-5.5-3.277-1.83-5.491,6.182-8,3.5 1.124-1.71 3.589-2.078 4-4.5-.591-.743-.433-2.234-2-2-.465.741-2.494,2.453-3.5,1 .91-1.423 2.747-1.92 4-3 .219-1.719-.197-2.803-.5-4-1.855-.39-3.435,2.051-4,0 1.322-1.511 4.256-1.41 4.5-4-.26-.74-.74-1.26-1-2-1.463-.257-2.457,2.489-3.5,1 .899-2.268 3.396-2.937 3.5-6-1.767-1.288-2.737,1.017-4,0 1.487-1.346 2.605-3.062 4.5-4 .005,1.328-.188,2.855.5,3.5 3.78.78 2.524-3.476 5-4 .147,1.945-1.295,3.955 0,5.5 1.756.089 1.645-1.688 3-2-.47-1.863-1.889-2.778-1.5-5.5-2.046,1.145-4.035.757-6-.5-1.161.205-2.113,3.176-3.5,1.5 2.71-1.949 4.884-5.407 5-8.5 1.701,2.115 4.83.358 6-1 .012-1.178-.861-1.472-.5-3-1.859-.214-5.389,1.91-5.5-1 1.666-.492 4.999.305 6.5-1.5 .362-1.529-.862-1.471-.5-3-2.046-.041-5.578,1.689-6-1 2.448-.184 7.293.285 6.5-4.5-.933-1.22-4.621,3.13-5-.5 2.52.354 3.436-.897 5-1.5 .361-1.528-.511-1.822-.5-3-1.771-.564-2.846,2.102-4,.5 .836-2.164 3.969-2.031 5-4 .077-1.244-.785-1.548-1-2.5-1.28-.542-2.384,1.519-3,0 2.36-1.27 4.212-2.933 4-5.5 2.548,1.297 4.369-.886 6-2-.165-1.169-.601-2.065-1-3-1.536.314-4.359,2.9-5.5.5 4.344-.329 7.397-4.092 5-7-1.957-.043-4.387.387-4-2 1.222-1.268 1.065,1.054 3,.5 1.361-.846 3.617-2.763 2-5-1.865.501-5.525,3.154-6-.5 3.561.561 5.084-.916 7-2 .506-2.339-2.006-1.661-1.5-4-2.649-.149-2.395,2.605-5.5,2-.157-.676-.712-.955-.5-2 3.086,1.341 4.616-2.09 6-4-1.161-.339-1.339-1.661-2.5-2-.069.979-2.23,2.372-3,1 1.504-1.163 2.757-2.576 4.5-3.5-1.832-2-3.053-5.813-2-8 2.99.323 4.016-1.317 6-2 .138-1.971-2.138-1.529-2-3.5-1.789-.098-3.171,2.796-5,1 .736-1.764 4.105-.895 4-3.5-2.454-1.213-.757-6.576-3-8-11.166,3.667-20.564,9.102-35,9.5 1.005,8.623 9.869,2.748 11,0 .06,4.06-3.074,4.926-5.5,6.5-.657,6.512 6.469,3.608 9,3.5-.982,1.851-3.284,2.383-5.5,3-.744,2.744 1.807,2.193 2,4-1.851,1.486-2.812-1.259-4-2-6.402,1.875-1.504,7.386 4,7-.713,1.121-2.712.954-3.5,2-.246,1.612 2.334,2.955 1,4-1.772.105-.987-2.346-3-2-.749,1.084-2.502,1.165-2.5,3 .92,2.58 4.195,2.805 6.5,4-.355,1.311-2.854.479-3,2 .44,1.393 2.48,1.187 2.5,3-2.751.751-2.505-1.495-4-2-1.989,2.675-6.759,1.279-8.5-.5-.736,1.265-2.716,1.284-3,3 .961,4.951 6.785,2.489 8.5,0 .146,4.661 5.368,1.149 6.5,3-3.146,3.228-10.117-3.151-10,3.5 1.833.667 3.625,1.375 5.5,2-1.608,2.438-5.179-.463-7-1-2.265,1.072-5.194,4.243-2,6.5 4.393.726 4.213-3.12 7.5-3.5-.677,3.011 2.38,2.287 3,4 .084,1.084-1.773.227-2.5.5-.676-.491-.999-1.334-1.5-2-1.857.977-3.831,1.836-5,3.5 .746,2.088 2.382,3.285 5,3.5 1.208-.625 1.146-2.521 3-2.5 .999,1.001 2.539,1.461 3,3-1.368,1.309-2.132-.806-3.5-1-1.92,3.628-7.362,1.28-8.5-1.5-1.99,1.011-3.694,2.306-5,4 1.284,1.217 1.456,3.544 4.5,3 1.855-.645 1.856-3.144 4.5-3-.092,4.084 4.732,3.636 7,4-.306,1.694-3.198.802-3,3-.039,1.777 4.117,2.726 1.5,4-1.211-.789-2.211-1.789-3-3-1.637.53-2.764,1.569-4,2.5-.215,4.309 4.757,3.128 6.5,3-1.021,3.244-7.23,2.134-7.5-1-1.792,1.208-4.27,1.73-5.5,3.5 .914.753 1.176,2.157 2,3 4.229,1.062 4.12-2.214 6.5-3-.142,2.975 2.224,3.443 4.5,4-.425.742-1.258,1.075-2.5,1-1.596-.071-1.484-1.849-3-2-1.328.506-2.845.822-3,2.5 1.315,3.994 4.178,1.298 7,.5 .544,2.123 1.967,3.366 4,4-2.144,2.973-4.371-1.271-5.5-2.5-2.11.909-2.621,4.743-.5,6 2.166.959 3.097-1.851 4-.5-.167,2.167-2.769,1.897-4,3-.473,3.733 2.754,4.383 4.5,4.5-.743,2.97-5.021.762-5-1.5-2.017.316-2.524,2.143-5,2-.294,1.795.581,2.419 1,3.5 3.25.75 3.838-1.161 5.5-2 .595,1.071.54,2.794 1.5,3.5 1.701-.034 3.489-.155 4,1-2.204,2.4-5.023-.633-7-1.5-.968,1.963-4.555-.63-4,2 .75,1.652 1.223-1.039 2.5-.5 .06,1.44-.273,3.273.5,4 3.315.815 2.787-2.213 5-2.5 .362,2.638 2.258,3.742 4,5-2.299,1.679-3.292-1.501-5-2-1.601,2.197-3.95,1.031-6,0-.563,1.367-.308,3.208.5,4.5 1.506-.494 1.369-2.631 3.5-2.5v4c2.469.469 3.391-.609 4.5-1.5-.121,3.121 3.807,2.193 4.5,4.5-2.738,1.179-3.517-.664-5.5-1.5-.657.51-1.843.49-2.5,1-.16,1.993-.027,3.694 1,4.5 2.867.7 2.498-1.835 4.5-2 .914,1.253 2.596,1.738 3.5,3-1.754,1.504-2.827-.875-4.5-1-.424,1.076-1.231,1.769-3,1.5-1.369,2.734.047,5.577 1.5,7-.721,1.112-1.256,2.411-1,4.5 1.43.57 2.339,1.661 4,2-2.628,1.1-3.436,5.593-.5,7-.293,2.54-2.758,2.908-4,4.5-.615,3.281 3.979,1.355 3.5,4.5-2.61.11-3.504-1.496-5-2.5-.351,2.982-4.814,1.853-5,5 1.349,3.233 4.926.467 6.5-.5-1.186,3.853 2.664,2.669 3.5,4.5-.093.74-1.208.458-2,.5 .341,4.507-5.856,2.478-5.5,7 1.639,2.247 4.13-.526 5.5.5-.525,1.642-2.564,1.769-4,2.5v3c.532.968 2.303.697 3,1.5-3.69,1.51-.3,5.49-.5,7zm-67.5-184c3.587.627 5.322-2.838 4-5.5-2.87.29-5.41,2.48-4,5.5zm117.5-3c.512,2.827 4.534,2.979 6,1 .68-4.21-5.38-4.38-6-1zm-16,3c1.949,1.86 5.001.395 7-.5 .03-1.863-.504-3.163-1-4.5-2.65,1.02-6.53.81-6,5zm159.5-1.5c3.5-.667 8.263-.071 11.5-1-1.78-4.37-9.59-.79-11.5,1zm-226,2.5c2.263-.237 3.566-1.434 3.5-4-.713-.12-.843-.823-1.5-1-1.5,1.01-3.26,2.7-2,5zm4.5-2c.089,1.578.351,2.982 2,3 2.084-.249 2.406-2.26 3-4-1.61-2.1-3.11.53-5,1zm71,.5c-.631,5.124 5.136,4.312 7,2-.33-5.34-3.64-3.35-7-2zm-64,4c2.891.224 4.246-1.087 4.5-3.5-1.88-4.33-7.88-.02-4.5,3.5zm79-2.5c1.317.15 1.641-.692 1.5-2-1.32-.15-1.64.7-1.5,2zm-6.5.5c-.332,4.414 4.362,3.447 6.5,2-.629-1.371-1.13-2.87-2.5-3.5-1.16.68-2.84.83-4,1.5zm-124,.5c-.271,4.48 4.91,3.808 5.5.5-1.58-2-3.37-2.21-5.5-.5zm60,3c1.974,1.976 7.162.746 7.5-2-2.713-.453-4.167-2.167-7-2.5 .27,1.94-.89,2.45-.5,4.5zm-52.5,2c2.596.263 3.514-1.152 4-3-1.001-.999-1.46-2.539-3-3-.48,1.73-2.32,4.07-1,6zm46-2c-.271,2.938.255,5.078 3,5 .617-2.394 2.23-6.423 1-9-1.04,1.63-1.82,3.51-4,4zm55-1c.708,2.036 4.21,2.539 6.5,1.5 .234-2.4-1.051-3.283-2-4.5-.95,1.56-4.59.41-4.5,3zm-58,4c.288-1.046 1.24-1.427 1-3-.556-1.11-1.979-1.354-2.5-2.5-2.34.93-3.31,6.54 1.5,5.5zm67.5-2c.652,2.477 5.96,2.663 6.5,0-1.077-.757-1.394-2.273-2.5-3-.19,2.15-3.73.94-4,3zm8.5.5c.385,1.885-.61,2.39-.5,4 1.152.514 1.612,1.721 3.5,1.5 1.096-1.737 1.324-4.343 1.5-7-1.98.03-2.9,1.11-4.5,1.5zm-126.5,3c.154-1.179 1.736-.931 1.5-2.5-.657-.51-1.843-.49-2.5-1 .08,1.42-.43,3.43 1,3.5zm4,1.5c1.729.396 2.111-.556 3-1-.444-1.723-.645-3.688-2.5-4-1.32,1.28-2.01,3.44-.5,5zm60.5-2c.092,3.271 7.589,5.646 7.5.5-3.6.07-5.65-5.72-7.5-.5zm48,2c2.576-.091 5.909.576 6-2-.747-.753-2.241-.759-2-2.5-2.66.22-5.59,1.55-4,4.5zm-53-1c1.63.13 2.406-.594 2.5-2-.945.112-1.103-.563-2-.5 .41,1.42-.7,1.3-.5,2.5zm-15,2c2.035.035 2.152-1.848 2-4-3.06-.69-3.65,2.85-2,4zm6,2c1.502-.85 3.266-3.478 2-5.5-4.17-.44-5.47,4.2-2,5.5zm69.5-3c.321,1.512.781,2.886 2.5,3 .884-.449 1.46-1.207 2.5-1.5 1.16-5.49-3.59-3.74-5-1.5zm-15.5.5c-.325,2.159.864,2.803 1.5,4 2.442-.058 3.881-1.119 5.5-2 .16-6.33-3.38-2.35-7-2zm-45.5,3c.967,2.567 6.464,2.607 8,.5-.934-2.232-3.117-3.216-4.5-5-.53,2.14-3.61,1.73-3.5,4.5zm-58.5,6c1.57.236 1.321-1.346 2.5-1.5-.966-1.518-2.792-5.864-.5-7.5-.713-.12-.843-.823-1.5-1-2.38,1.51-.8,6.8-.5,10zm54.5-5c2.063.266 1.813-3.438 1.5-4h-2c-.22,1.72.2,2.81.5,4zm-52.5-3c-.165,1.832.555,2.778 1,4 1.174-.159 1.877-.79 3.5-.5 .318-1.144.992-3.016 0-4-1.48,1.01-3.62-.13-4.5.5zm117.5,2c-.023-3.154-4.524-2.85-6.5-.5 .29,5.24 6.52,3.4 6.5.5zm-51,0c-.221,1.888.986,2.348 1.5,3.5 2.665.332 4.376-.291 5-2-1.27-2.57-4.02-3.83-6.5-1.5zm58,4.5c1.337-1.163 2.044-2.956 2-5.5-3.15-2.36-5.26,4.76-2,5.5zm-78.5-1.5c.452.882 1.119,1.548 2,2 1.297-.536 1.493-2.174 3-2.5 .205-1.205-.913-1.087-.5-2.5-1.97.53-4.14.86-4.5,3zm72.5,2.5c1.174.159 1.877.79 3.5.5 .54-1.604-.586-3.788-.5-5.5-3.49-.46-3.44,2.88-3,5zm-14.5-3c.103,1.564-.337,3.671.5,4.5 2.913-.42 5.482-1.185 6.5-3.5-.48-4.2-4.32-1.42-7-1zm-51.5,4.5c.57-1.097 1.291-2.043 1-4-.639-.027-.692-.641-1.5-.5 .02,1.49-1.49,4 .5,4.5zm9-2.5c.325,1.675.807,3.193 2,4 2.944.111 4.832-.834 5-3.5-2.79-1.67-4.13-3.25-7-.5zm-6.5,3c1.793.896 4.312-1.187 4.5-3.5-1.111-.389-1.95-1.051-3.5-1 .16,1.99-1.16,2.52-1,4.5zm-52.5,0c.727.735 3.272.735 4,0 1.55-3.16-5.09-6.25-4,0zm110-3.5c-.438,2.09-1.378,3.516 0,5 4.561-.207 5.93-1.419 4.5-5.5-1.98-.3-2.9,1.96-4.5.5zm-66.5,7.5c2.142,1.022 6.061-1.745 4-5-3.85-.83-4.68,2.84-4,5zm59-3c-.64,1.602.077,4.039 1.5,5 2.971.304 3.701-1.632 5-3-.441-1.226-1.499-1.835-1-4-2.5,0-2.67,2.33-5.5,2zm17,3.5c1.519-.575 3.496-4.565 1.5-5.5-1.31,1.51-2.39,3.06-1.5,5.5zm-66.5-1c1.404,4.871 7.726,3.567 9-.5-2.306-.527-3.163-2.504-5-3.5-1.12,1.55-3.45,1.89-4,4zm61.5,2.5c1.536.711 2.249.225 3.5-.5-.245-2.245.254-3.746.5-5.5-1.413.413-1.295-.705-2.5-.5-.43,2.24-1.51,3.83-1.5,6.5zm-116-.5c.444-1.056 1.522-1.478 1.5-3-.951-1.049-1.362-2.638-3.5-2.5-1.53,1.18-.54,5.42 2,5.5zm64.5-3c-.365,2.365.713,3.287 1.5,4.5 2.779.279 4.769-.231 5-2.5-1.387-.947-2.304-2.362-4-3-1.54-.37-.96,1.38-2.5,1zm-61,2c1.21.819 2.429,1.273 4,.5 .24-1.573-.712-1.954-1-3-2.04-.2-3.15.52-3,2.5zm107.5,2.5c.977.586 2.798,1.643 4,.5-.183-2.308-.615-2.877 0-5-1.994.274-1.506.274-3.5,0-.02,1.65-.84,2.49-.5,4.5zm-66-.5v4c2.705,1.219 5.255-2.759 4-5.5-1.85-.01-2.9.77-4,1.5zm-45.5.5v3c2.373,1.229 5.005.123 5-2.5-1.42-2.58-2.66-1.45-5-.5zm60,2c.13,1.536 1.085,2.248 1.5,3.5 3.211.211 4.729-1.271 5.5-3.5-2.037.037-1.839-2.16-3.5-2.5-1.74.27-2.32,1.68-3.5,2.5zm-53,2.5h2c2.66-5.58-5.64-5.09-2,0zm99.5-4c-.438,2.09-1.378,3.516 0,5 2.584.083 2.31-2.69 5-2.5 .21,2.043-1.646,2.021-1,4.5 1.943,1.054 3.982.261 5-1-.153-1.514-1.547-1.786-1-4-3.88.37-3.97-3.96-8-2zm-51.5,5c1.96-.373 2.689-1.978 3.5-3.5-1.408-.426-2.051-1.615-4-1.5 .14,1.7-.39,4.06.5,5zm61-.5c.953.213.904,1.429 2.5,1 .585-1.508-.058-2.719.5-5h-2c-.44,1.23-1.16,2.17-1,4zm-68.5,6c3.947-.569 3.731-4.942 1.5-7-1.67,1.43-3.7,4.61-1.5,7zm-43-1.5c1.838.172 1.512-1.821 2-3-.723-.943-1.117-2.217-3-2-.97,1.5-1.53,4.67 1,5zm50.5-1c1.306,2.68 7.097,1.631 7.5-1-1.239-.595-2.813-.854-3-2.5-2.28.4-3.62,1.71-4.5,3.5zm10,2c2.568.067 5.024.024 5.5-2-.577-1.756-2.182-2.485-3.5-3.5-1.98.91-4.24,3.17-2,5.5zm-64.5-1.5c.468-.995 1.627-2.38.5-3.5h-1.5c-.05,1.55.23,2.78 1,3.5zm9.5,1.5c2.035.035 2.152-1.848 2-4-3.08-3.31-6.18,3.27-2,4zm94.5.5c.561.105.778.555 1,1 2.877.21 3.832-1.501 5-3-.99-3.75-6.73-2.72-6,2zm12.5,1.5c2.042-.458 2.206-2.794 2.5-5-2.68-.33-3.67,3.08-2.5,5zm-5-3c-.911,1.018-1.581,4.055-.5,5.5 4.174.291 4.577-4.193 3-6 .08,1.09-1.77.23-2.5.5zm-111,4.5c3,.396 3.313-4.666 0-4-.76,1.59-.18,2.2 0,4zm4.5,1.5h2.5c.399-.935.835-1.831 1-3-.85-.983-1.534-2.133-3-2.5-1.7,1.23-.58,3.35-.5,5.5zm5-1c.424,1.075 1.841,1.159 3.5,1-.535-1.868 1.242-1.425 1-3-1.522.022-1.944-1.056-3-1.5-.47,1.21-2.01,1.33-1.5,3.5zm44.5,1c.831-1.169 2.792-1.208 2.5-3.5-1.528.361-1.822-.511-3-.5-.5,1.3-.88,3.35.5,4zm-7,2h2.5c.432-1.479.551-5.054-1.5-5.5-1.77.3-1.99,4.03-1,5.5zm58,1c2.108-.059 2.529-1.805 4-2.5-.159-1.174-.79-1.877-.5-3.5-3.07.02-6.1,3.41-3.5,6zm-51.5,0c.722,4.258 7.395,3.369 7.5-1-2.061-.272-3.101-1.565-4.5-2.5-.4,1.77-3.05,1.29-3,3.5zm60.5-.5c1.684.636 2.067-2.536 1-3 .13,1.47-1.13,1.54-1,3zm-110,2.5c.856-.644 1.357-1.644 1.5-3-1.768-.232-1.758-2.242-4-2-1.27,2.03-.23,5.38 2.5,5zm2.5,0c.645.688 2.172.495 3.5.5 .362-1.138.446-2.555 1-3.5-1.89-2.43-5.29-1.19-4.5,3zm103.5,1.5c1.795.295 2.419-.581 3.5-1-.021-1.646-.844-2.489-.5-4.5-4.3-1.21-4.56,3.75-3,5.5zm-62.5-2.5c-.273,2.273.257,3.743 1.5,4.5 2.439.062 3.395-4.229 1.5-5.5-.21,1.13-2.65.02-3,1zm56.5,4.5c4.915,3.05 6.283-2.301 3-5.5-1.54,1.3-2.68,2.99-3,5.5zm-95,.5c.706,1.294 1.616,2.384 4,2 .704-.963 1.321-2.012 1.5-3.5-2.2-1.95-5.08-2.55-5.5,1.5zm-2.5,1c.26-.74.74-1.26 1-2-1.73-5.34-7.26,2.25-1,2zm35-.5c1.123.21.014,2.653 1,3h2.5c.941-1.226 1.696-2.637 2-4.5-1.55-1.96-3.86.62-5.5,1.5zm56.5,3.5c3.185,1.334 7.34-3.552 4-6-1.41,1.93-5.02,1.65-4,6zm-44-2.5c1.446-.221 2.279-1.054 2.5-2.5-.581-.42-1.34-.659-2.5-.5v3zm55.5,2.5c2.517-.317 2.466-3.201 3.5-5-2.31-1.26-3.72,2.13-3.5,5zm-61,0c1.3.638 1.508,1.097 3,.5-.005-1.328.189-2.855-.5-3.5-2.03-.19-2.89.78-2.5,3zm-44.5-1c-.02,1.853.768,2.898 1.5,4 1.957.29 2.903-.431 4-1 .16-1.993.027-3.694-1-4.5-2.27-.26-3,1.01-4.5,1.5zm7.5,2c.341,1.492 1.991,1.676 4,1.5 .399-.935.835-1.831 1-3-1.53-2.39-4.19-.79-5,1.5zm42.5-2c-.295,2.129.359,3.307.5,5 2.755-.078 3.979-1.688 5-3.5-1.48-1.8-3.06-3.07-5.5-1.5zm50,3c1.336,1.159 2.791.762 4.5,0-.085-2.339-1.286-1.661-.5-4-3.25-.58-4.32,1.01-4,4zm-57.5,3.5c.486-1.514 1.321-2.68 1.5-4.5-3.43-3.23-8.61,4.69-1.5,4.5zm52,1c2.881.047 5.046-.621 5.5-3-.449-.884-1.207-1.46-1.5-2.5-3.15-.19-5.71,2.45-4,5.5zm-46.5,0c.826-.974-.105-3.22-.5-4.5-4.31-.68-3.33,5.35.5,4.5zm-44.5,0c1.782,2.062 5.817.55 6-2-1.552-.281-2.173-1.493-3.5-2-.51,1.66-2.77,1.57-2.5,4zm7.5.5c.945-.112 1.103.563 2,.5 1.012-.821 1.995-1.672 2-3.5-2.14-1.63-4.55-.59-4,3zm91,4c.495-2.672 2.188-4.145 2.5-7-4.06-1.02-6.19,6.41-2.5,7zm-61-1.5c1.479,1.113 4.562.49 4-2-.92-2.36-4.42-1.05-4,2zm53,1c.814,2.057 3.212,2.262 5,1-.076-2.278-.413-1.962 0-4-2.5.17-4.83.51-5,3zm-89-1.5c-.328,4.728 6.351,3 6-.5-2.08-1.59-3.29,1.15-6,.5zm44,3.5c-.215-1.618.658-4.324-1-4.5-1.68.51-2.72,5.49 1,4.5zm7-2c-.169,2.169.361,3.639 1.5,4.5 7.71.26 3.55-7.9-1.5-4.5zm-52.5,5c1.406-.094 2.13-.87 2-2.5-.395-1.105-1.749-1.251-2.5-2-.34,2.01.48,2.86.5,4.5zm37-3.5c-.336,2.336 1.126,2.874 2,4 2.534-.133 3.085-2.248 3-5-1.98.66-3.54.97-5,1zm12,2c.559-.774 1.625-1.041 1.5-2.5-.581-.42-1.34-.659-2.5-.5 .01,1.33-.28,2.95 1,3zm-45,2.5c2.214-.785 3.555-2.445 4-5-1.85.96-5.67,2.15-4,5zm91,0c2.11.11 1.402-2.598 2.5-3.5-1.88.12-1.95,2.05-2.5,3.5zm-2,1.5c.928-1.072 1.336-2.664 1.5-4.5-2.038.413-1.722.076-4,0-.72,2.81.01,3.88 2.5,4.5zm-44.5,1.5c2.852.185 4.48-.854 5-3-.831-1.002-1.343-2.324-3-2.5-.73,1.77-2.22,2.78-2,5.5zm-5.5-2.5c1.868.045 1.425.561 3,0v-2.5h-3v2.5zm-37,5c2.924-.358 3.821-4.387 1.5-6-1.41,1.49-3.73,3.68-1.5,6zm31-3c.612,3.5 5.958,1.765 5-2-1.26-.64-4.92-.12-5,2zm-34.5,1.5c1.7-.892 1.025-4.027-1.5-3.5 .43,1.24-.13,3.47 1.5,3.5zm41,3.5c1.539.35.961.35 2.5,0 .887-.946.364-3.303.5-5-3.8-1.29-4.16,2.95-3,5zm46.5-4c-.399,2.732.768,3.899 3.5,3.5 .223-1.611.958-2.709 1-4.5-2.09-.25-3.39.28-4.5,1zm-85.5,7.5c1.163-.504 1.612-1.721 1.5-3.5-.621-1.046-1.454-1.879-2.5-2.5-1.47,1.06-1,5.48 1,6zm33-5c.06,2.273.464,4.202 2,5 4-1.39 3.23-8.29-2-5zm-28.5,5c1.413-.587 1.658-2.342 2-4-1.179-.154-.93-1.736-2.5-1.5-.91,1.39-1.89,4.95.5,5.5zm83,2c.292-1.833.243-2.019.5-4.5-4.52-1.07-4.15,4.86-.5,4.5zm-49-3v2.5c1.213.97 3.022,1.642 4.5,1 .268-1.935-.893-2.44-.5-4.5-1.83-.16-2.78.56-4,1zm-32,7c1.983-.018 2.07-1.93 3-3-.328-1.838-1.843-2.49-3-3.5-1.76,1.65-1.61,4.73 0,6.5zm40-4.5v-2h-1.5c-.14,1.31-.17,2.51 1.5,2zm32.5-1c.06,1.44-.273,3.273.5,4 2.166-.334 4.112-.888 4.5-3-.157-.676-.712-.955-.5-2-2.1-.26-2.79.88-4.5,1zm-78.5,4.5c1.968,1.006 3.043-1.072 3.5-3-.364-1.136-1.504-1.495-2.5-2-1.67,1.43-1.22,2.22-1,5zm34-3.5c-.433,2.498 2.258,3.753 4,2.5 .242-1.575-1.535-1.132-1-3-1.23-.06-2.41-.07-3,.5zm11.5,6c1.863.718 4.555-.327 4.5-3-1.407-.594-1.926-2.074-3.5-2.5-1.25.82-2.26,3.75-1,5.5zm40,1c.681-1.319.591-3.409 1-5-.688.021-1.098-.235-1.5-.5-1.34,1.29-2.21,4.91.5,5.5zm-46.5-3.5c-.048,2.048.069,3.932 2,4 .79-1.044 1.037-2.63 1-4.5-1.23-.06-2.41-.07-3,.5zm-38.5,2v3c.946.555 2.362.638 3.5,1 2.71-3.35.1-7.11-3.5-4zm34.5,3.5c.945-.112 1.103.563 2,.5 1.634-1.205.55-2.857.5-5h-2.5c-.75.81-.75,3.69 0,4.5zm-28,1c3.16.494 3.747-1.587 4.5-3.5-2.645.812-1.565-2.102-4-1.5-.81.99-1.61,3.64-.5,5zm39-2c-.16,1.993-.027,3.694 1,4.5 3.631.298 5.008-1.659 5.5-4.5-1.79-2.33-4.15-.98-6.5,0zm-6.5,4.5c1.705.038 1.48-1.853 1.5-3.5-2.44-.77-2.37,2.49-1.5,3.5zm-39.5.5c1.562.229 1.599-1.068 1.5-2.5-.688.021-1.098-.235-1.5-.5 .41,1.73-.93,2.12 0,3zm3.5,2c2.017-.15 3.595-.738 3.5-3-.807-.693-1.583-1.417-2.5-2-1.18,1.47-1.66,2.85-1,5zm37,67c2.279-23.512 12.045-49.157 2.5-72-3.2,22.09-6.01,48.13-2.5,72zm35-70c.848,1.486.622,4.045 3,4 1.216-.783.695-3.305 3-3 1.16,1.152-.926,1.612-.5,3.5 1.156.677 1.656,2.01 4,1.5 1.718-2.615-.765-4.734-1.5-6.5-3.57,1.93-5.42-2.84-8,.5zm-39,2.5c.732-.435 1.585-.749 1.5-2-.424-1.076-1.231-1.769-3-1.5-.75,1.56-.58,3.49 1.5,3.5zm-36.5,1.5c.985.849 1.341,2.325 1.5,4 1.971.304 2.215-1.119 2.5-2.5-.893-.941-1.352-2.314-2.5-3-.06.95-1.65.35-1.5,1.5zm7.5,4.5c.955-1.045 1.612-2.388 2-4-1.179-.154-.93-1.736-2.5-1.5-1.32,1.27-2.5,5.2.5,5.5zm28,0c3.302.677 2.861-4.257.5-4.5-.38,1.3-1.55,3.31-.5,4.5zm41.5-2.5c-.207,2.206.136,3.864 1,5 2.298-.369 3.903-1.43 4.5-3.5-1.59-2.13-2.98-3.76-5.5-1.5zm6.5,7.5c2.258.164 2.049-6.014 1-6-1.16,1.34-1.61,4.35-1,6zm-75.5,0c2.981.647 2.616-2.051 3.5-3.5-1.179-.154-.93-1.736-2.5-1.5-.53,1.75-2.38,2.74-1,5zm27-1c.74.26 1.26.74 2,1 1.44-.415 3.029-3.275 1.5-5-.63,1.87-4.13.88-3.5,4zm-31.5,1c2.397-.314 3.554-4.731 0-4.5-1.2,1.38-.91,2.94 0,4.5zm74.5-.5c.094,1.906.71,3.29 2.5,3.5 .995-.505 2.136-.864 2.5-2-1.496-.338-.324-3.343-2-3.5-.4,1.27-2.06,1.28-3,2zm-47,3c1.488.662 2.537.513 3.5-.5 .45-4.09-4.09-3.25-3.5.5zm-28,1.5c.452.882 1.119,1.548 2,2 1.281-1.337 3.271-3.085 2-5.5-2.27.24-3.67,1.34-4,3.5zm33.5,1c1.776-.057 2.012-1.654 2-3.5-2.89-.59-3.6,2.4-2,3.5zm46.5,2.5c.111-.937 1.289-3.313 0-4 .29,1.34-1.48,3.13 0,4zm-50,.5c1.16.159 1.919-.08 2.5-.5 .24-1.573-.712-1.954-1-3-1.87-.19-2.58,2.28-1.5,3.5zm16.5,2.5c2.206.039 3.27-1.063 3.5-3-.452-.882-1.119-1.548-2-2-1.13.94-2.7,3.32-1.5,5zm-43.5.5c1.89.057 2.688-.979 3-2.5-.643-.857-1.034-1.966-2.5-2-1.01.67-1.51,3.35-.5,4.5zm30,2c-.1-1.733-.417-3.25-2.5-3-1.25,1.51.17,3.54 2.5,3zm-33,2.5c2.703.311 2.703-4.811 0-4.5-.75.81-.75,3.69 0,4.5zm46.5-1.5c.414,1.945 3.709,2.778 5,1-.127-1.873-.785-3.215-2-4-.76,1.24-3.11.9-3,3zm-43,2c1.251.725 1.963,1.211 3.5.5 1.1-4.61-4.13-5.07-3.5-.5zm72.5-1.5c.522,1.144.317,3.016 1,4h3c-.316-1.684.645-4.645-.5-5.5-.27,1.41-2.41.93-3.5,1.5zm-50,.5c.925.075.307,1.693 1,2 2.576.647 3.76-1.875 2.5-3.5-1.49.18-3.04.29-3.5,1.5zm5.5,0c-.152,2.152-.035,4.035 2,4 .61-.757.981-4.307 0-5-.33.67-1.07.94-2,1zm-32,3c-.24,1.573.712,1.954 1,3 1.729.396 2.111-.556 3-1 .16-2.81-2.3-3.66-4-2zm46.5,2c.559-.774 1.625-1.041 1.5-2.5-.639-.027-.692-.641-1.5-.5-.39.35-1.11,2.79 0,3zm2.5,3c1.767.963 2.737-.163 4-1-.499-1.834-.479-4.188-2.5-4.5-1.11,1.22-1.83,2.84-1.5,5.5zm-21.5-4.5v2.5c.591.576 1.768.566 3,.5 .521-1.416.521-2.084 0-3.5-1.53-.36-1.47.87-3,.5zm52,6c1.258-.409 1.053-2.281 1-4h-1.5c-1.03,1.21-1.12,3.15.5,4zm-45-1.5c.06-4.62-5.06.5 0,0zm10.5,5.5c4.778-.195 4.109-4.988 1.5-7-1.3,1.54-1.65,4.02-1.5,7zm-44.5-2c.837.663 1.675,1.324 3.5,1 1.11-1.36.311-4.013-.5-5-2.57-.23-3,1.67-3,4zm29-.5c.945.112 1.103-.563 2-.5 .13-1.63-.594-2.406-2-2.5-.68.64-.68,2.37 0,3zm21,4.5c5.356.682 4.127-4.643 1.5-6-2.17.73-3.25,4.16-1.5,6zm-20.5-.5c2.825.158 3.748-1.585 4-4-1.36-.66-5.59,1.58-4,4zm50,.5c-.088-2.077.865-2.75-.5-4-.22,1.77-.77,2.85.5,4zm-81.5,1c2.502.947 2.787-3.438.5-3 .36,1.53-.86,1.47-.5,3zm3.5,1.5c1.681,1.316 4.078.007 4.5-1.5-1.04-2.96-5.07-3.14-4.5,1.5zm43-2.5c-.264,2.098.874,2.793 1,4.5 2.455.288 3.685-.648 4-2.5-1.126-.707-.983-2.684-2.5-3-1.24-.07-1.55.79-2.5,1zm30,3c.388.112.986.014 1,.5 2.167-.218 2.927-2.611 2-4.5-3.02-.69-3.19,1.48-3,4zm-50-2.5c-.012,1.846.224,3.443 2,3.5 1.79-.21 2.406-1.594 2.5-3.5-1.42-1.84-2.31,0-4.5,0zm6,.5v3c3.466,1.076 4.52-3.279 2-4-.33.67-1.07.94-2,1zm20.5,5c1.44-.06 3.273.273 4-.5 .558-2.391-1.558-2.109-1-4.5-3.03-.28-4,2.75-3,5zm-53.5,1.5c8.75-.08-.87-9.97 0,0zm79-3c.167,2-.643,4.976 1.5,5 2.702.479 2.7-5.749 1-6.5-.75.59-1.22,1.45-2.5,1.5zm-71.5,5.5c.13-.703 1.097-.57 1.5-1-.449-1.718-.777-3.557-2-4.5-2.79.44-2.56,5.55.5,5.5zm21.5-1c2.734.382 4.121-2.622 3-4.5-2.8-.17-4.13,2.23-3,4.5zm16.5,0c1.719-.114 2.179-1.488 2.5-3-.74-.26-1.26-.74-2-1 .35,1.86-.85,2.15-.5,4zm4,2.5c3.151.484 3.603-1.73 4.5-3.5-1.69-4.69-6.91-.99-4.5,3.5zm-13.5-1.5v-4c-3.29-.68-3.29,4.69 0,4zm-36,0c.005,1.328-.189,2.855.5,3.5 5.69.68 4.09-6.83-.5-3.5zm75,2.5c2.092,1.472 4.201-.593 4-3-2.07-1.44-3.92.88-4,3zm-45,2c2.417.251 2.849-1.484 3.5-3-1.221-.278-1.065-1.935-3-1.5-1.36.32-1.31,3.54-.5,4.5zm14.5,1.5c2.963-.179 3.711-3.018 3-5.5-2.97-.13-3.23,2.44-3,5.5zm36-4.5c-.073,1.24-.093,2.427 1,2.5 .392-.347 1.113-2.79 0-3-.11.39-.42.59-1,.5zm-74,4c2.014.014 2.857-1.143 3.5-2.5-1.34-3.57-4.93.55-3.5,2.5zm24,2c.512.488 1.012.988 1.5,1.5 2.78-.054 1.659-4.008 4.5-4 .011-1.178-.861-1.473-.5-3h-1.5c-.59,2.58-2.92,3.42-4,5.5zm47,1c2.239-.094 2.889-1.777 3-4-2.98-3.1-5.4,2.61-3,4zm-76.5-2.5c.051,3.162 4.406,1.824 4-1-.105-.561-.555-.778-1-1-.4,1.27-2.06,1.28-3,2zm42.5,2c-.291,1.957.43,2.903 1,4 2.5-.167 3.849-1.484 4.5-3.5-.89-3.17-3.41-1.35-5.5-.5zm-46.5,4.5c2.536.203 3.577-1.09 4.5-2.5-.989-1.011-1.854-2.146-3-3-1.47,1.82-3.17,2.96-1.5,5.5zm53.5-3.5c.005,1.328-.189,2.855.5,3.5 3.053.387 4.425-.908 5-3-1.66-2.29-2.88-1.58-5.5-.5zm-24,3c.986.848 1.147,2.52 3.5,2 .938-1.427.898-5.333-1.5-5 .1,1.78-2.35.99-2,3zm-23.5,2h2c1.278-1.338-.302-2.637 0-4.5h-1.5c-.7.98-1.63,3.22-.5,4.5zm75-1c1.528.361 1.822-.511 3-.5 .01-1.677 0-3.333-2-3-1.08.43-1.16,1.85-1,3.5zm-45,.5c1.89.057 2.688-.979 3-2.5-.561-.105-.778-.555-1-1-2.28-.47-3.15,2.11-2,3.5zm11.5,0c-.24,1.573.712,1.954 1,3 3.208.541 4.355-.978 5-3-1.95-2.74-2.83.11-6,0zm-46.5,3c.946.992 2.362.243 3.5,0v-3c-2.02.15-3.6.74-3.5,3zm29.5-1c.253,1.914.454,3.88 2.5,4 2.084-.249 2.581-2.086 3-4-1.99-1.92-2.58.34-5.5,0zm6.5,0c-.002,2.002.262,3.737 2.5,3.5 .66-.807 1.08-4.405-.5-4.5-.33.67-1.07.94-2,1zm-31,4c2.517.351 3.296-1.037 3-3.5-2.52-.35-3.3,1.04-3,3.5zm-7.5,2c1.89.057 2.688-.979 3-2.5-.621-1.046-1.454-1.879-2.5-2.5-.81.99-1.61,3.64-.5,5zm46.5-1c1.786-.214 2.744-1.256 3.5-2.5-1.041-.293-1.616-1.051-2.5-1.5-.49,1.18-.88,2.46-1,4zm5-2c-.16,1.993-.027,3.694 1,4.5 2.279-.555 3.764-1.902 4.5-4-1.61-1.26-3.52-1.95-5.5-.5zm-45.5,5c.713-.12.843-.823 1.5-1-.231-1.769-.889-3.111-2-4-2.02.37-2.26,5.26.5,5zm29-1.5c.221,1.446 1.054,2.279 2.5,2.5 .863-1.137 2.068-1.932 2-4-1.42-1.37-4.03-.68-4.5,1.5zm44,1c.561.105.778.555 1,1 1.512-.321 2.886-.781 3-2.5-.3-3.15-4.51-1.68-4,1.5zm-70,.5c.674.682 3.491.953 3.5-.5-1.7.033-.765-2.568-2.5-2.5-.4.94-.84,1.83-1,3zm32.5.5c.181-.941 1.077-2.314-.5-3-.58.54-.18,2.31.5,3zm10.5,1c-5.78-11.38-7.9,8.22 0,0zm34.5,0c-.305-1.195.628-3.628-.5-4-1.65.18-2.63,4.66.5,4zm-87-1.5c-.045,1.868-.561,1.425 0,3 2.455.288 3.685-.648 4-2.5-.48-2.01-2.42-1.13-4-.5zm37.5,5c1.186.914 2.892,1.305 4.5.5 1.032-2.649-.707-3.873-2.5-5-.31,1.86-2.46,1.87-2,4.5zm43-3.5c.005,1.328-.188,2.855.5,3.5 3.018.684 3.169-1.497 4-3-1.02-.147-.98-1.353-2-1.5-.07,1.1-1.26,1.08-2.5,1zm-75,2.5c.591.576 1.768.566 3,.5-.242-1.575 1.535-1.132 1-3-1.71-1.21-3.87.57-4,2.5zm45.5,5c3.018.684 3.169-1.497 4-3-1.93-4.19-7.07-1.08-4,3zm-51-3.5c.165,1.169.601,2.065 1,3 3.465.438 4.528-1.783 3.5-4.5-2.14-.14-3.3.7-4.5,1.5zm87,3.5c-.267-1.733.742-4.742-1-5-.9.94-2.27,5.62 1,5zm-40.5-1.5c1.819.318 1.965-1.035 2-2.5h-2v2.5zm-40.5.5c.703.131.57,1.097 1,1.5 7.46.06 1.17-7.42-1-1.5zm75.5-.5c-.002,2.002.263,3.737 2.5,3.5 .315-1.205.726-4.447-1-5-.49.52-.99,1.02-1.5,1.5zm-38.5-.5c-2.028-1.232-6.087,2.077-4,5 3.57.57 4-2 4-5zm3.5,3c-.05,1.55.611,2.389 1,3.5 2.198.197 3.386-.614 3.5-2.5-.88-1.7-2.85-2.59-4.5-1zm-45,.5c-.822,4.141 4.1,4.124 4.5,1-.01-2.74-2.73-1.59-4.5-1zm50.5,3.5c.561.105.778.555 1,1 2.047.214 2.61-1.057 3.5-2-.24-3.98-5.15-3.49-4.5,1zm-43,1c1.446-.221 2.279-1.055 2.5-2.5-.72-4.43-5.71.28-2.5,2.5zm77-.5c.723-.12 1.162-4.115-.5-3.5-.72.12-1.16,4.12.5,3.5zm-5,2c2.979.596 3.49-2.048 2.5-4-2.42-.25-2.54,1.79-2.5,4zm-40,2.5c.229-1.771 1.112-2.888 1-5-3.46-2.72-5.99,6.3-1,5zm-40.5-2.5c1.925.394 1.925-2.394 0-2v2zm4,2c1.232.066 2.409.076 3-.5 1.84-3.97-5.61-4.45-3,.5zm42.5-3c.358,1.476.571,3.096 1.5,4 3.026.22 4.264-2.681 2.5-4.5-1.85-.35-2.15.86-4,.5zm34,4c.479.854 1.571,1.096 2.5,1.5 .798-1.369 1.866-2.467 2.5-4-1.7-.93-4.64.51-5,2.5zm-80.5,2c.788.045.392,1.275 1.5,1 1.383-1.046 2.105-3.742-.5-4 .24,1.58-1.54,1.14-1,3zm48.5,1.5c1.915,1.024 3.488-.232 4-2-1.07-1.55-4.49-.84-4,2zm27-2v2.5c1.045.985 3.32.382 4.5,0 .37-4.09-1.82-3.46-4.5-2.5zm-68.5,2.5c.561-1.575.045-1.132 0-3h-1.5c-.93.99-.74,3.69 1.5,3zm31,1c1.872.039 1.706-1.961 2-3.5-.688.021-1.098-.235-1.5-.5-.4,1.17-1.6,2.84-.5,4zm45.5,2c.882-.405 2.085-4.851 0-5-1.69.61-2.27,4.57 0,5zm-80,3.5c1.051-1.282 1.521-3.146 2-5-1.339-.328-1.901-1.433-3-2-2.03,1.34-2.26,6.82 1,7zm43.5-2.5c2.471.253 1.544-3.489 0-3.5v3.5zm-41-1.5c.797,1.369 1.218,3.115 4,2.5 .145-2.311-1.042-3.291-2.5-4-.06.95-1.65.35-1.5,1.5zm44,1c.26.74.74,1.26 1,2 1.89.057 2.688-.979 3-2.5-.61-2.33-3.96-2.54-4,.5zm27,2c2.636.303 4.224-.443 4.5-2.5-.583-.084-.543-.791-.5-1.5-3.19-.52-4.52.81-4,4zm-38.5,0c-.44-1.769 1.284-2.576-.5-3-.87.66-1.83,3.18.5,3zm44,3.5c.223-.983 1.854-3.092.5-4-.22.99-1.85,3.1-.5,4zm-76,3c1.661-.506 1.66-2.673 1.5-5-1.04-.293-1.616-1.051-2.5-1.5-1.58,1.67-1.14,5.75 1,6.5zm43-1.5c1.401-.266.924-2.409 1.5-3.5-1.221-.278-1.065-1.935-3-1.5-1.07,1.57-.31,4.75 1.5,5zm2.5,1.5c1.933,1.043 2.938-.783 4-2-.521-1.646-1.55-2.783-3-3.5-.61,1.56-1.16,3.17-1,5.5zm28-.5c2.382-.714.834-2.599 1-5-3.72-.47-3.93,4.18-1,5zm-32,1c.419,1.414.581,3.086 1,4.5 2.509.342 3.131-1.202 3.5-3-1.12-1.53-2.41-3.55-4.5-1.5zm31,5c2.518.52 3.742-5.03 2-5.5-1.38,1.12-2.12,2.89-2,5.5zm-74,0c1.308-.525 1.635-2.031 1.5-4-1.575.241-1.132-1.534-3-1-.97,1.46-.71,5.15 1.5,5zm70,3.5c4.587.104 2.852-2.328 2.5-5.5-3.75-.52-4.11,3.33-2.5,5.5zm-25-1.5c.833.5.354,2.312 1.5,2.5 6.17-.04.21-7.51-1.5-2.5zm-45-.5c-.066,1.232-.076,2.409.5,3 1.573.239 1.955-.712 3-1 .6-3.7-1.57-2.9-3.5-2zm48.5,3.5c-1.183,1.469-1.814,4.146-.5,5.5 3.37.56 4.36-5.72.5-5.5zm-44,4c1.791.291 1.52-1.479 1.5-3-1.205.205-1.087-.913-2.5-.5-.83.89-.73,3.67 1,3.5zm-4.5,0c1.562.229 1.599-1.068 1.5-2.5h-1.5v2.5zm3,5c1.017-1.407.896-2.052.5-4h-1.5c-.9,1.06-.83,4.16 1,4zm66.5,1c2.661-.172 3.013-2.654 3.5-5-2.41.25-5.14,2.33-3.5,5zm-62-1.5c-.088-1.578-.351-2.982-2-3-.14,1.81-.12,3.46 2,3zm42,1.5c2.264.431 3.115-.552 3.5-2-.998-.502-.789-2.211-2.5-2-1.26.41-1.05,2.29-1,4zm-43.5,4.5c.721-1.112 1.255-2.411 1-4.5-3.82-1.36-3.93,4.75-1,4.5zm41.5-1c1.272-.061 1.939-.728 2-2-.952-.215-1.256-1.077-2.5-1-.07,1.24-.08,2.41.5,3zm22,2.5c.594-1.146 2.585-4.258.5-5-1.37.42-3.49,4.79-.5,5zm-19.5-.5c.91,1.256 3.09,1.256 4,0-.444-1.723-.645-3.688-2.5-4-1.16.67-.77,2.9-1.5,4zm-44,3.5c2.557.557 1.841-2.158 2.5-3.5-.639-.027-.692-.641-1.5-.5-.57,1.1-1.29,2.05-1,4zm42,2c3.836-.125 2.014-4.659.5-6-1.14,2.08-.64,3.3-.5,6zm-44.5-2c.754-1.025 1.715-3.302-.5-3.5-.68.68-.95,3.49.5,3.5zm49.5,3.5c3.012.099 2.3-4.883-.5-4.5-1.02,1.62-1.27,3.58.5,4.5zm-47.5,3c1.405-.429.962-2.704 1-4.5-.74-.26-1.26-.74-2-1-.65,1.61-1.08,5.2 1,5.5zm3.5,0c.787-1.491 1.689-3.421 1-5-.945.112-1.103-.563-2-.5-.98,1.48-.67,5.11 1,5.5zm40,1c2.573.406 3.058-1.275 3-3.5-.952-.215-1.256-1.077-2.5-1-.84.83-.4,2.94-.5,4.5zm-42,5c1.07-.575 2.045-5.254-.5-5-1.4,1.47-.96,3.88.5,5zm42.5-3v3.5c3.043.967 4.071-3.701 1.5-4-.08.59-.79.55-1.5.5zm-41.5,6c.788.045.392,1.275 1.5,1 1.167-1.033.907-2.558.5-4h-1.5c.01,1.18-.86,1.48-.5,3zm42,4.5c1.769.27 2.191-.809 3-1.5 .377-2.377-1.26-2.739-2-4-1.32,1.06-1.72,3.82-1,5.5zm-42,1.5c1.43-.07.915-2.086 1-3.5-1.205.205-1.087-.913-2.5-.5 .06,1.78-.36,4.03 1.5,4zm42,.5c-.29,1.623.34,2.326.5,3.5 2.536.203 2.841-1.825 4-3-1.07-2.33-2.55-1.81-4.5-.5zm-40,4c.713-.667.713-2.833 0-3.5-3.22-.57-3.04,3.94 0,3.5zm2.5,4c.601-1.403.288-3.188-2-3-.6,1.41-.29,3.19 2,3zm-2.5,5.5c.858-.809 1.242-2.092 1-4-.688.021-1.098-.235-1.5-.5-.66.81-1.08,4.41.5,4.5zm39-1c2.265.265 3.265-.735 3-3-.581-.42-1.34-.659-2.5-.5-.69.65-.5,2.18-.5,3.5zm-37,5c1.371-.01 1.188-2.358.5-3h-1.5c-.82.81-.6,3.14 1,3zm-1.5,5.5c.419-1.081 1.294-1.705 1-3.5-.945.112-1.103-.563-2-.5-.08,1.75.13,3.2 1,4zm36-.5h2c.419-.58.66-1.341.5-2.5-1.38.29-2.8.53-2.5,2.5zm-36.5,2c.06,1.44-.273,3.273.5,4 1.806-.36 1.796-2.537 2-4.5-1.2-.2-1.09.92-2.5.5zm35,.5c.549,2.224-1.208,3.645 0,5 4.09.91 4.15-8.88 0-5zm-33,8.5c2.084-.249 2.581-2.086 3-4-1.04-.293-1.616-1.051-2.5-1.5-.66,1.27-1.66,3.98-.5,5.5zm31.5-1.5c.363,1.529-.863,1.471-.5,3 2.005,1.869 5.13.118 4.5-3.5-1.88-.38-2.39.61-4,.5zm-35.5,6c2.133-.366 3.458-1.541 3.5-4-.713-.12-.843-.823-1.5-1-1.37.84-3.02,3.37-2,5zm32-1.5h2c-.521-1.416-.521-2.084 0-3.5-1.81.03-1.01,2.66-2,3.5zm2.5,5.5c1.12,1.128 2.505-.032 3.5-.5v-4c-2.88-.2-2.62,2.72-3.5,4.5zm-1.5,2c.95-1.217.341-3.992 1-5.5h-3c.39,2.11.14,4.87 2,5.5zm-33,.5c2.648-.186 3.419-2.248 4.5-4-2.02-3.63-4.9.7-4.5,4zm-4,4.5c2.425.067 4.4-4.43 2-6-1.29,1.38-2.13,3.21-2,6zm41,.5c.3-1.836 1.129-4.791-.5-6-2.16.48-3.4,6.47.5,6zm-18.5-1.5c.828-1.004 1.794-3.824-.5-4-.67.73-1.02,3.96.5,4zm-1.5,4c.006-.993 1.364-.636 1-2-.639-.027-.692-.641-1.5-.5-.26,1.28-.66,1.75.5,2.5zm-21,3c.768-1.732 2.521-2.479 2.5-5-2.89-.66-4.32,4.13-2.5,5zm-4.5,8.5c1.446-.221 2.279-1.054 2.5-2.5-.502-.664-.473-1.86-1.5-2-1.09.71-2.13,3.12-1,4.5zm67,3c1.084.084.227-1.773.5-2.5h-1.5c.22.95-.68,3.02 1,2.5zm-66.5,3.5c.752-1.415 2.203-2.13 2.5-4-1.315.148-.394-1.939-2-1.5-.61,1.25-2.83,4.43-.5,5.5zm68,2c.531-.591.227-3.165-1-3.5-.73.8-1.03,3.97 1,3.5zm-71.5,1.5c2.403-.055 2.352-3.424.5-4-.77.73-.44,2.56-.5,4zm72.5,3c.593-.652.236-3.175-1.5-3-.93.99-.74,3.69 1.5,3zm-81,27.5c10.829-8.505 28.39-12.943 29-30-5.54,14.13-21.18,18.16-29,30zm8.5-28.5c.288.879-.604,2.938.5,3 .379-1.296 2.545-2.309 1.5-3.5-.94-.11-1.1.57-2,.5zm81.5,32.5c-8.466-9.368-22.473-17.527-27-32.5-.639-.027-.692-.641-1.5-.5 1.88,18.62 17.21,23.79 28.5,33z"/>
  <path d="m280.5 141.59c1.301 1.032 1.793 2.874 2 5-1.22-1.11-1.4-3.26-2-5z"/>
  <path d="m278.5 171.09c1.043 1.044 1.199 2.688 1.5 5.5-1.27-1.06-1.2-3.46-1.5-5.5z"/>
  <path d="m268.5,36.094c.934-.889-.406-1.271 0-3 2.236-1.29 7.299-1.49 9.5,0 .239,1.573-.712,1.955-1,3 2.413.92 5.653,1.013 5.5,4.5-3.935.59-10.931-4.288-16-1-1.364.364-1.007-.994-2-1 .55-1.615 1.59-2.742 4-2.5z"/>
 </g>
</svg>
